<svg xmlns="http://www.w3.org/2000/svg" viewBox="0 0 1200 800" width="1200" height="800">
  <defs>
    <!-- Gradients -->
    <linearGradient id="bgGrad" x1="0%" y1="0%" x2="100%" y2="100%">
      <stop offset="0%" stop-color="#0f172a"/>
      <stop offset="50%" stop-color="#1a1a2e"/>
      <stop offset="100%" stop-color="#0f172a"/>
    </linearGradient>
    
    <linearGradient id="audioGrad" x1="0%" y1="0%" x2="100%" y2="100%">
      <stop offset="0%" stop-color="#6366f1"/>
      <stop offset="100%" stop-color="#4f46e5"/>
    </linearGradient>
    
    <linearGradient id="imuGrad" x1="0%" y1="0%" x2="100%" y2="100%">
      <stop offset="0%" stop-color="#ec4899"/>
      <stop offset="100%" stop-color="#db2777"/>
    </linearGradient>
    
    <linearGradient id="processGrad" x1="0%" y1="0%" x2="100%" y2="100%">
      <stop offset="0%" stop-color="#3b82f6"/>
      <stop offset="100%" stop-color="#2563eb"/>
    </linearGradient>
    
    <linearGradient id="filterGrad" x1="0%" y1="0%" x2="100%" y2="100%">
      <stop offset="0%" stop-color="#8b5cf6"/>
      <stop offset="100%" stop-color="#7c3aed"/>
    </linearGradient>
    
    <linearGradient id="outputGrad" x1="0%" y1="0%" x2="100%" y2="100%">
      <stop offset="0%" stop-color="#10b981"/>
      <stop offset="100%" stop-color="#059669"/>
    </linearGradient>
    
    <linearGradient id="modelGrad" x1="0%" y1="0%" x2="100%" y2="100%">
      <stop offset="0%" stop-color="#f59e0b"/>
      <stop offset="100%" stop-color="#d97706"/>
    </linearGradient>
    
    <linearGradient id="deviceGrad" x1="0%" y1="0%" x2="100%" y2="100%">
      <stop offset="0%" stop-color="#14b8a6"/>
      <stop offset="100%" stop-color="#0d9488"/>
    </linearGradient>
    
    <linearGradient id="cloudGrad" x1="0%" y1="0%" x2="100%" y2="100%">
      <stop offset="0%" stop-color="#06b6d4"/>
      <stop offset="100%" stop-color="#0891b2"/>
    </linearGradient>
    
    <!-- Arrow markers -->
    <marker id="arrowBlue" markerWidth="8" markerHeight="8" refX="7" refY="4" orient="auto">
      <path d="M0,0 L0,8 L8,4 z" fill="#3b82f6"/>
    </marker>
    <marker id="arrowPink" markerWidth="8" markerHeight="8" refX="7" refY="4" orient="auto">
      <path d="M0,0 L0,8 L8,4 z" fill="#ec4899"/>
    </marker>
    <marker id="arrowGreen" markerWidth="8" markerHeight="8" refX="7" refY="4" orient="auto">
      <path d="M0,0 L0,8 L8,4 z" fill="#10b981"/>
    </marker>
    <marker id="arrowOrange" markerWidth="8" markerHeight="8" refX="7" refY="4" orient="auto">
      <path d="M0,0 L0,8 L8,4 z" fill="#f59e0b"/>
    </marker>
    <marker id="arrowPurple" markerWidth="8" markerHeight="8" refX="7" refY="4" orient="auto">
      <path d="M0,0 L0,8 L8,4 z" fill="#8b5cf6"/>
    </marker>
    <marker id="arrowTeal" markerWidth="8" markerHeight="8" refX="7" refY="4" orient="auto">
      <path d="M0,0 L0,8 L8,4 z" fill="#14b8a6"/>
    </marker>
    <marker id="arrowCyan" markerWidth="8" markerHeight="8" refX="7" refY="4" orient="auto">
      <path d="M0,0 L0,8 L8,4 z" fill="#06b6d4"/>
    </marker>
    <marker id="arrowWhite" markerWidth="8" markerHeight="8" refX="7" refY="4" orient="auto">
      <path d="M0,0 L0,8 L8,4 z" fill="#94a3b8"/>
    </marker>
    
    <!-- Shadow filter -->
    <filter id="shadow" x="-20%" y="-20%" width="140%" height="140%">
      <feDropShadow dx="0" dy="4" stdDeviation="6" flood-color="#000" flood-opacity="0.3"/>
    </filter>
    
    <!-- Background pattern -->
    <pattern id="grid" width="40" height="40" patternUnits="userSpaceOnUse">
      <path d="M 40 0 L 0 0 0 40" fill="none" stroke="rgba(148,163,184,0.05)" stroke-width="1"/>
    </pattern>
  </defs>
  
  <!-- Background -->
  <rect width="1200" height="800" fill="url(#bgGrad)"/>
  <rect width="1200" height="800" fill="url(#grid)"/>
  
  <!-- Decorative glows -->
  <ellipse cx="300" cy="200" rx="200" ry="100" fill="rgba(99,102,241,0.05)"/>
  <ellipse cx="300" cy="400" rx="200" ry="100" fill="rgba(236,72,153,0.05)"/>
  <ellipse cx="900" cy="500" rx="200" ry="150" fill="rgba(16,185,129,0.05)"/>
  
  <!-- Title -->
  <text x="600" y="42" fill="#f1f5f9" font-size="30" font-weight="700" text-anchor="middle" font-family="SF Pro Display, -apple-system, sans-serif">数据选取与处理流程</text>
  <text x="600" y="68" fill="#64748b" font-size="13" text-anchor="middle" font-family="monospace">端侧采集 → 边侧预处理 → 特征提取 → 模型推理/云端训练</text>
  
  <!-- ==================== 端侧采集 ==================== -->
  
  <text x="50" y="110" fill="#14b8a6" font-size="15" font-weight="600" font-family="SF Pro Display, sans-serif">① 端侧数据采集 (K01 + D02)</text>
  
  <!-- Microphone -->
  <rect x="40" y="130" width="130" height="100" rx="10" fill="url(#deviceGrad)" filter="url(#shadow)"/>
  <text x="105" y="155" fill="white" font-size="12" font-weight="600" text-anchor="middle">🎙️ MEMS麦克风</text>
  <line x1="55" y1="165" x2="155" y2="165" stroke="rgba(255,255,255,0.25)" stroke-width="1"/>
  <text x="105" y="183" fill="rgba(255,255,255,0.9)" font-size="9" text-anchor="middle">全向拾音</text>
  <text x="105" y="198" fill="rgba(255,255,255,0.7)" font-size="9" text-anchor="middle">16kHz采样</text>
  <text x="105" y="213" fill="rgba(255,255,255,0.6)" font-size="9" text-anchor="middle">4秒窗口</text>
  
  <!-- IMU -->
  <rect x="40" y="250" width="130" height="100" rx="10" fill="url(#deviceGrad)" filter="url(#shadow)"/>
  <text x="105" y="275" fill="white" font-size="12" font-weight="600" text-anchor="middle">📳 六轴IMU</text>
  <line x1="55" y1="285" x2="155" y2="285" stroke="rgba(255,255,255,0.25)" stroke-width="1"/>
  <text x="105" y="303" fill="rgba(255,255,255,0.9)" font-size="9" text-anchor="middle">MPU6050</text>
  <text x="105" y="318" fill="rgba(255,255,255,0.7)" font-size="9" text-anchor="middle">100Hz采样</text>
  <text x="105" y="333" fill="rgba(255,255,255,0.6)" font-size="9" text-anchor="middle">加速度+角速度</text>
  
  <!-- SLE transmission -->
  <rect x="40" y="370" width="130" height="70" rx="10" fill="rgba(59,130,246,0.15)" stroke="#3b82f6" stroke-width="2"/>
  <text x="105" y="398" fill="#3b82f6" font-size="11" font-weight="600" text-anchor="middle">⭐ 星闪SLE传输</text>
  <text x="105" y="418" fill="#64748b" font-size="9" text-anchor="middle">延迟 &lt;1ms</text>
  <text x="105" y="432" fill="#64748b" font-size="9" text-anchor="middle">→ 边侧香橙派</text>
  
  <!-- Arrows from sensors to SLE -->
  <path d="M 105 230 L 105 250" stroke="#14b8a6" stroke-width="2" fill="none" marker-end="url(#arrowTeal)"/>
  <path d="M 105 350 L 105 365" stroke="#14b8a6" stroke-width="2" fill="none" marker-end="url(#arrowBlue)"/>
  
  <!-- ==================== 音频处理流程 ==================== -->
  
  <text x="200" y="110" fill="#818cf8" font-size="15" font-weight="600" font-family="SF Pro Display, sans-serif">② 音频数据处理 (边侧)</text>
  
  <!-- Audio Raw -->
  <rect x="200" y="130" width="110" height="85" rx="10" fill="rgba(99,102,241,0.12)" stroke="#818cf8" stroke-width="2" stroke-dasharray="5,3"/>
  <text x="255" y="155" fill="#818cf8" font-size="11" font-weight="600" text-anchor="middle">原始音频</text>
  <text x="255" y="175" fill="#64748b" font-size="8" text-anchor="middle" font-family="monospace">PCM数据流</text>
  <text x="255" y="190" fill="#64748b" font-size="8" text-anchor="middle">64000采样点</text>
  <text x="255" y="205" fill="#475569" font-size="8" text-anchor="middle">(4s × 16kHz)</text>
  
  <!-- STFT + Mel -->
  <rect x="330" y="130" width="110" height="85" rx="10" fill="url(#filterGrad)" filter="url(#shadow)"/>
  <text x="385" y="155" fill="white" font-size="11" font-weight="600" text-anchor="middle">梅尔频谱</text>
  <text x="385" y="175" fill="rgba(255,255,255,0.8)" font-size="8" text-anchor="middle" font-family="monospace">STFT→Mel</text>
  <text x="385" y="190" fill="rgba(255,255,255,0.6)" font-size="8" text-anchor="middle">n_fft=1024</text>
  <text x="385" y="205" fill="rgba(255,255,255,0.5)" font-size="8" text-anchor="middle">n_mels=64</text>
  
  <!-- Normalize -->
  <rect x="460" y="130" width="110" height="85" rx="10" fill="url(#processGrad)" filter="url(#shadow)"/>
  <text x="515" y="155" fill="white" font-size="11" font-weight="600" text-anchor="middle">标准化</text>
  <text x="515" y="175" fill="rgba(255,255,255,0.8)" font-size="8" text-anchor="middle" font-family="monospace">dB + Z-score</text>
  <text x="515" y="190" fill="rgba(255,255,255,0.6)" font-size="8" text-anchor="middle">动态范围压缩</text>
  <text x="515" y="205" fill="rgba(255,255,255,0.5)" font-size="8" text-anchor="middle">均值0 方差1</text>
  
  <!-- Audio Output -->
  <rect x="590" y="130" width="120" height="85" rx="10" fill="url(#outputGrad)" filter="url(#shadow)"/>
  <text x="650" y="155" fill="white" font-size="11" font-weight="600" text-anchor="middle">音频特征</text>
  <text x="650" y="178" fill="rgba(255,255,255,0.9)" font-size="10" text-anchor="middle" font-family="monospace">(1, 64, 128)</text>
  <text x="650" y="195" fill="rgba(255,255,255,0.6)" font-size="8" text-anchor="middle">梅尔频谱图</text>
  <text x="650" y="210" fill="rgba(255,255,255,0.5)" font-size="8" text-anchor="middle">Float32</text>
  
  <!-- Audio arrows -->
  <line x1="170" y1="180" x2="195" y2="180" stroke="#3b82f6" stroke-width="2" marker-end="url(#arrowPurple)"/>
  <line x1="310" y1="172" x2="325" y2="172" stroke="#6366f1" stroke-width="2" marker-end="url(#arrowPurple)"/>
  <line x1="440" y1="172" x2="455" y2="172" stroke="#8b5cf6" stroke-width="2" marker-end="url(#arrowBlue)"/>
  <line x1="570" y1="172" x2="585" y2="172" stroke="#3b82f6" stroke-width="2" marker-end="url(#arrowGreen)"/>
  
  <!-- ==================== IMU处理流程 ==================== -->
  
  <text x="200" y="250" fill="#f472b6" font-size="15" font-weight="600" font-family="SF Pro Display, sans-serif">③ 振动数据处理 (边侧)</text>
  
  <!-- IMU Raw -->
  <rect x="200" y="270" width="110" height="85" rx="10" fill="rgba(236,72,153,0.12)" stroke="#f472b6" stroke-width="2" stroke-dasharray="5,3"/>
  <text x="255" y="295" fill="#f472b6" font-size="11" font-weight="600" text-anchor="middle">原始IMU</text>
  <text x="255" y="315" fill="#64748b" font-size="8" text-anchor="middle" font-family="monospace">6轴数据流</text>
  <text x="255" y="330" fill="#64748b" font-size="8" text-anchor="middle">ax,ay,az,gx,gy,gz</text>
  <text x="255" y="345" fill="#475569" font-size="8" text-anchor="middle">(2s × 100Hz)</text>
  
  <!-- Low Pass Filter -->
  <rect x="330" y="270" width="110" height="85" rx="10" fill="url(#filterGrad)" filter="url(#shadow)"/>
  <text x="385" y="295" fill="white" font-size="11" font-weight="600" text-anchor="middle">低通滤波</text>
  <text x="385" y="315" fill="rgba(255,255,255,0.8)" font-size="8" text-anchor="middle" font-family="monospace">Butterworth</text>
  <text x="385" y="330" fill="rgba(255,255,255,0.6)" font-size="8" text-anchor="middle">4阶 IIR</text>
  <text x="385" y="345" fill="rgba(255,255,255,0.5)" font-size="8" text-anchor="middle">截止 20Hz</text>
  
  <!-- IMU Normalize -->
  <rect x="460" y="270" width="110" height="85" rx="10" fill="url(#processGrad)" filter="url(#shadow)"/>
  <text x="515" y="295" fill="white" font-size="11" font-weight="600" text-anchor="middle">通道标准化</text>
  <text x="515" y="315" fill="rgba(255,255,255,0.8)" font-size="8" text-anchor="middle" font-family="monospace">Z-score</text>
  <text x="515" y="330" fill="rgba(255,255,255,0.6)" font-size="8" text-anchor="middle">加速度σ=2.0</text>
  <text x="515" y="345" fill="rgba(255,255,255,0.5)" font-size="8" text-anchor="middle">角速度σ=50</text>
  
  <!-- IMU Output -->
  <rect x="590" y="270" width="120" height="85" rx="10" fill="url(#outputGrad)" filter="url(#shadow)"/>
  <text x="650" y="295" fill="white" font-size="11" font-weight="600" text-anchor="middle">振动特征</text>
  <text x="650" y="318" fill="rgba(255,255,255,0.9)" font-size="10" text-anchor="middle" font-family="monospace">(200, 6)</text>
  <text x="650" y="335" fill="rgba(255,255,255,0.6)" font-size="8" text-anchor="middle">时序振动序列</text>
  <text x="650" y="350" fill="rgba(255,255,255,0.5)" font-size="8" text-anchor="middle">Float32</text>
  
  <!-- IMU arrows -->
  <line x1="170" y1="300" x2="195" y2="300" stroke="#3b82f6" stroke-width="2" marker-end="url(#arrowPink)"/>
  <line x1="310" y1="312" x2="325" y2="312" stroke="#ec4899" stroke-width="2" marker-end="url(#arrowPurple)"/>
  <line x1="440" y1="312" x2="455" y2="312" stroke="#8b5cf6" stroke-width="2" marker-end="url(#arrowBlue)"/>
  <line x1="570" y1="312" x2="585" y2="312" stroke="#3b82f6" stroke-width="2" marker-end="url(#arrowGreen)"/>
  
  <!-- ==================== 模型推理 (边侧) ==================== -->
  
  <text x="750" y="110" fill="#f59e0b" font-size="15" font-weight="600" font-family="SF Pro Display, sans-serif">④ 模型推理 (边侧 · 昇腾310)</text>
  
  <!-- Feature fusion arrow -->
  <path d="M 710 172 L 750 172 L 750 240 L 780 240" stroke="#10b981" stroke-width="2.5" fill="none" marker-end="url(#arrowOrange)"/>
  <path d="M 710 312 L 750 312 L 750 280 L 780 280" stroke="#10b981" stroke-width="2.5" fill="none" marker-end="url(#arrowOrange)"/>
  <text x="735" y="232" fill="#10b981" font-size="9" font-family="monospace">(1,64,128)</text>
  <text x="735" y="298" fill="#10b981" font-size="9" font-family="monospace">(200,6)</text>
  
  <!-- AI Model -->
  <rect x="780" y="130" width="200" height="230" rx="12" fill="url(#modelGrad)" filter="url(#shadow)"/>
  <text x="880" y="160" fill="white" font-size="14" font-weight="700" text-anchor="middle">🧠 多模态融合模型</text>
  <line x1="795" y1="172" x2="965" y2="172" stroke="rgba(255,255,255,0.25)" stroke-width="1"/>
  
  <!-- Model internal structure -->
  <rect x="800" y="185" width="75" height="40" rx="6" fill="rgba(255,255,255,0.15)"/>
  <text x="837" y="202" fill="white" font-size="8" font-weight="500" text-anchor="middle">Audio CNN</text>
  <text x="837" y="216" fill="rgba(255,255,255,0.7)" font-size="7" text-anchor="middle">→ 256维</text>
  
  <rect x="885" y="185" width="75" height="40" rx="6" fill="rgba(255,255,255,0.15)"/>
  <text x="922" y="202" fill="white" font-size="8" font-weight="500" text-anchor="middle">IMU BiLSTM</text>
  <text x="922" y="216" fill="rgba(255,255,255,0.7)" font-size="7" text-anchor="middle">→ 128维</text>
  
  <rect x="800" y="235" width="160" height="35" rx="6" fill="rgba(255,255,255,0.2)"/>
  <text x="880" y="252" fill="white" font-size="9" font-weight="500" text-anchor="middle">跨模态注意力融合</text>
  <text x="880" y="265" fill="rgba(255,255,255,0.7)" font-size="7" text-anchor="middle">Cross-Modal Attention → 128维</text>
  
  <rect x="800" y="280" width="160" height="30" rx="6" fill="rgba(255,255,255,0.15)"/>
  <text x="880" y="298" fill="white" font-size="9" font-weight="500" text-anchor="middle">时序上下文 + 分类器</text>
  
  <rect x="800" y="320" width="160" height="30" rx="6" fill="rgba(16,185,129,0.4)" stroke="#10b981" stroke-width="1"/>
  <text x="880" y="340" fill="white" font-size="10" font-weight="600" text-anchor="middle">P(欺凌) ∈ [0, 1]</text>
  
  <!-- ==================== 推理结果与干预 ==================== -->
  
  <text x="1000" y="110" fill="#ef4444" font-size="15" font-weight="600" font-family="SF Pro Display, sans-serif">⑤ 干预与上报</text>
  
  <!-- Decision -->
  <rect x="1010" y="130" width="150" height="100" rx="10" fill="rgba(239,68,68,0.15)" stroke="#ef4444" stroke-width="2"/>
  <text x="1085" y="155" fill="#ef4444" font-size="12" font-weight="600" text-anchor="middle">⚖️ 智能决策</text>
  <line x1="1025" y1="165" x2="1145" y2="165" stroke="rgba(239,68,68,0.3)" stroke-width="1"/>
  <text x="1085" y="185" fill="#94a3b8" font-size="9" text-anchor="middle">P ≥ 0.7 触发报警</text>
  <text x="1085" y="200" fill="#64748b" font-size="9" text-anchor="middle">连续确认 ≥2次</text>
  <text x="1085" y="215" fill="#64748b" font-size="9" text-anchor="middle">告警级别分类</text>
  
  <!-- Alarm -->
  <rect x="1010" y="250" width="150" height="80" rx="10" fill="url(#imuGrad)" filter="url(#shadow)"/>
  <text x="1085" y="275" fill="white" font-size="12" font-weight="600" text-anchor="middle">🚨 声光干预</text>
  <line x1="1025" y1="285" x2="1145" y2="285" stroke="rgba(255,255,255,0.25)" stroke-width="1"/>
  <text x="1085" y="303" fill="rgba(255,255,255,0.8)" font-size="9" text-anchor="middle">蜂鸣器 + LED</text>
  <text x="1085" y="318" fill="rgba(255,255,255,0.6)" font-size="9" text-anchor="middle">现场即时震慑</text>
  
  <!-- Arrow from model to decision -->
  <line x1="980" y1="260" x2="1005" y2="260" stroke="#f59e0b" stroke-width="2.5" marker-end="url(#arrowOrange)"/>
  
  <!-- Arrow from decision to alarm -->
  <line x1="1085" y1="230" x2="1085" y2="245" stroke="#ef4444" stroke-width="2" marker-end="url(#arrowPink)"/>
  
  <!-- ==================== 云端数据流 ==================== -->
  
  <text x="50" y="480" fill="#06b6d4" font-size="15" font-weight="600" font-family="SF Pro Display, sans-serif">⑥ 云端数据汇聚与增量训练</text>
  
  <!-- Data upload from edge -->
  <rect x="40" y="500" width="150" height="90" rx="10" fill="url(#cloudGrad)" filter="url(#shadow)"/>
  <text x="115" y="525" fill="white" font-size="12" font-weight="600" text-anchor="middle">📤 数据上报</text>
  <line x1="55" y1="535" x2="175" y2="535" stroke="rgba(255,255,255,0.25)" stroke-width="1"/>
  <text x="115" y="553" fill="rgba(255,255,255,0.8)" font-size="9" text-anchor="middle">MQTT → IoTDA</text>
  <text x="115" y="568" fill="rgba(255,255,255,0.6)" font-size="9" text-anchor="middle">特征 + 标签</text>
  <text x="115" y="583" fill="rgba(255,255,255,0.5)" font-size="9" text-anchor="middle">事件日志</text>
  
  <!-- DIS + OBS -->
  <rect x="220" y="500" width="150" height="90" rx="10" fill="url(#cloudGrad)" filter="url(#shadow)"/>
  <text x="295" y="525" fill="white" font-size="12" font-weight="600" text-anchor="middle">🗄️ DIS + OBS</text>
  <line x1="235" y1="535" x2="355" y2="535" stroke="rgba(255,255,255,0.25)" stroke-width="1"/>
  <text x="295" y="553" fill="rgba(255,255,255,0.8)" font-size="9" text-anchor="middle">数据流接入</text>
  <text x="295" y="568" fill="rgba(255,255,255,0.6)" font-size="9" text-anchor="middle">历史数据归档</text>
  <text x="295" y="583" fill="rgba(255,255,255,0.5)" font-size="9" text-anchor="middle">训练数据集构建</text>
  
  <!-- ModelArts Training -->
  <rect x="400" y="500" width="180" height="90" rx="10" fill="url(#modelGrad)" filter="url(#shadow)"/>
  <text x="490" y="525" fill="white" font-size="12" font-weight="600" text-anchor="middle">🔄 增量训练</text>
  <line x1="415" y1="535" x2="565" y2="535" stroke="rgba(255,255,255,0.25)" stroke-width="1"/>
  <text x="490" y="553" fill="rgba(255,255,255,0.8)" font-size="9" text-anchor="middle">ModelArts平台</text>
  <text x="490" y="568" fill="rgba(255,255,255,0.6)" font-size="9" text-anchor="middle">报警数据回流训练</text>
  <text x="490" y="583" fill="rgba(255,255,255,0.5)" font-size="9" text-anchor="middle">模型持续优化</text>
  
  <!-- OTA Update -->
  <rect x="610" y="500" width="150" height="90" rx="10" fill="rgba(20,184,166,0.15)" stroke="#14b8a6" stroke-width="2"/>
  <text x="685" y="525" fill="#14b8a6" font-size="12" font-weight="600" text-anchor="middle">📦 OTA更新</text>
  <line x1="625" y1="535" x2="745" y2="535" stroke="rgba(20,184,166,0.3)" stroke-width="1"/>
  <text x="685" y="553" fill="#94a3b8" font-size="9" text-anchor="middle">新模型下发</text>
  <text x="685" y="568" fill="#64748b" font-size="9" text-anchor="middle">边侧自动更新</text>
  <text x="685" y="583" fill="#64748b" font-size="9" text-anchor="middle">检测能力提升</text>
  
  <!-- Cloud flow arrows -->
  <line x1="190" y1="545" x2="215" y2="545" stroke="#06b6d4" stroke-width="2" marker-end="url(#arrowCyan)"/>
  <line x1="370" y1="545" x2="395" y2="545" stroke="#06b6d4" stroke-width="2" marker-end="url(#arrowOrange)"/>
  <line x1="580" y1="545" x2="605" y2="545" stroke="#f59e0b" stroke-width="2" marker-end="url(#arrowTeal)"/>
  
  <!-- OTA to Edge loop -->
  <path d="M 685 500 L 685 460 L 880 460 L 880 365" stroke="#14b8a6" stroke-width="2.5" fill="none" stroke-dasharray="8,4" marker-end="url(#arrowOrange)"/>
  <text x="785" y="450" fill="#14b8a6" font-size="9" font-family="monospace">模型更新 → 边侧</text>
  
  <!-- Edge to Cloud arrow - 从干预模块绕到云端，从星闪SLE模块下方通过 -->
  <path d="M 1085 330 L 1085 455 L 115 455 L 115 495" stroke="#ef4444" stroke-width="2" fill="none" marker-end="url(#arrowCyan)"/>
  <text x="600" y="447" fill="#ef4444" font-size="9" font-family="monospace">报警事件 + 特征数据 → 云端</text>
  
  <!-- ==================== LEGEND ==================== -->
  
  <rect x="40" y="620" width="1120" height="160" rx="12" fill="rgba(30,41,59,0.6)" stroke="rgba(71,85,105,0.3)" stroke-width="1"/>
  
  <text x="60" y="650" fill="#f1f5f9" font-size="14" font-weight="600" font-family="SF Pro Display, sans-serif">处理参数说明</text>
  
  <!-- Audio params -->
  <rect x="60" y="670" width="14" height="14" rx="3" fill="url(#audioGrad)"/>
  <text x="82" y="681" fill="#94a3b8" font-size="10" font-family="SF Pro Display, sans-serif">音频: SR=16kHz, 4s窗口, n_mels=64, n_fft=1024, hop=512</text>
  
  <!-- IMU params -->
  <rect x="450" y="670" width="14" height="14" rx="3" fill="url(#imuGrad)"/>
  <text x="472" y="681" fill="#94a3b8" font-size="10" font-family="SF Pro Display, sans-serif">IMU: SR=100Hz, 2s窗口, 6轴, Butterworth 4阶低通 fc=20Hz</text>
  
  <!-- Model params -->
  <rect x="60" y="700" width="14" height="14" rx="3" fill="url(#modelGrad)"/>
  <text x="82" y="711" fill="#94a3b8" font-size="10" font-family="SF Pro Display, sans-serif">模型: Audio CNN(256d) + BiLSTM(128d) + CrossAttention(128d) → Sigmoid</text>
  
  <!-- Training params -->
  <rect x="560" y="700" width="14" height="14" rx="3" fill="url(#cloudGrad)"/>
  <text x="582" y="711" fill="#94a3b8" font-size="10" font-family="SF Pro Display, sans-serif">训练: Focal Loss, Adam, Cosine LR, 数据增强</text>
  
  <!-- Data flow description -->
  <text x="60" y="745" fill="#64748b" font-size="11" font-family="SF Pro Display, sans-serif">数据闭环:</text>
  <text x="130" y="745" fill="#94a3b8" font-size="10">端侧采集 → 星闪传输 → 边侧预处理 → 特征提取 → 模型推理 → 干预执行 → 数据上报 → 增量训练 → OTA更新</text>
  
  <text x="1100" y="765" fill="#475569" font-size="10" text-anchor="end" font-family="SF Pro Display, sans-serif">三英战ICT · 华中师范大学</text>
</svg>
