<svg xmlns="http://www.w3.org/2000/svg" viewBox="0 0 1200 800" width="1200" height="800">
  <defs>
    <!-- Gradients -->
    <linearGradient id="bgGrad" x1="0%" y1="0%" x2="100%" y2="100%">
      <stop offset="0%" stop-color="#0f172a"/>
      <stop offset="50%" stop-color="#1a1a2e"/>
      <stop offset="100%" stop-color="#0f172a"/>
    </linearGradient>
    
    <linearGradient id="huaweiGrad" x1="0%" y1="0%" x2="100%" y2="100%">
      <stop offset="0%" stop-color="#cf0a2c"/>
      <stop offset="100%" stop-color="#a00820"/>
    </linearGradient>
    
    <linearGradient id="mindsporeGrad" x1="0%" y1="0%" x2="100%" y2="100%">
      <stop offset="0%" stop-color="#6366f1"/>
      <stop offset="100%" stop-color="#4f46e5"/>
    </linearGradient>
    
    <linearGradient id="obsGrad" x1="0%" y1="0%" x2="100%" y2="100%">
      <stop offset="0%" stop-color="#3b82f6"/>
      <stop offset="100%" stop-color="#2563eb"/>
    </linearGradient>
    
    <linearGradient id="modelartsGrad" x1="0%" y1="0%" x2="100%" y2="100%">
      <stop offset="0%" stop-color="#8b5cf6"/>
      <stop offset="100%" stop-color="#7c3aed"/>
    </linearGradient>
    
    <linearGradient id="ascendGrad" x1="0%" y1="0%" x2="100%" y2="100%">
      <stop offset="0%" stop-color="#f59e0b"/>
      <stop offset="100%" stop-color="#d97706"/>
    </linearGradient>
    
    <linearGradient id="serviceGrad" x1="0%" y1="0%" x2="100%" y2="100%">
      <stop offset="0%" stop-color="#10b981"/>
      <stop offset="100%" stop-color="#059669"/>
    </linearGradient>
    
    <linearGradient id="functionGrad" x1="0%" y1="0%" x2="100%" y2="100%">
      <stop offset="0%" stop-color="#06b6d4"/>
      <stop offset="100%" stop-color="#0891b2"/>
    </linearGradient>
    
    <linearGradient id="apiGrad" x1="0%" y1="0%" x2="100%" y2="100%">
      <stop offset="0%" stop-color="#ec4899"/>
      <stop offset="100%" stop-color="#db2777"/>
    </linearGradient>
    
    <!-- Arrow markers -->
    <marker id="arrowWhite" markerWidth="8" markerHeight="8" refX="7" refY="4" orient="auto">
      <path d="M0,0 L0,8 L8,4 z" fill="#94a3b8"/>
    </marker>
    <marker id="arrowGreen" markerWidth="8" markerHeight="8" refX="7" refY="4" orient="auto">
      <path d="M0,0 L0,8 L8,4 z" fill="#10b981"/>
    </marker>
    <marker id="arrowBlue" markerWidth="8" markerHeight="8" refX="7" refY="4" orient="auto">
      <path d="M0,0 L0,8 L8,4 z" fill="#3b82f6"/>
    </marker>
    <marker id="arrowPurple" markerWidth="8" markerHeight="8" refX="7" refY="4" orient="auto">
      <path d="M0,0 L0,8 L8,4 z" fill="#8b5cf6"/>
    </marker>
    <marker id="arrowOrange" markerWidth="8" markerHeight="8" refX="7" refY="4" orient="auto">
      <path d="M0,0 L0,8 L8,4 z" fill="#f59e0b"/>
    </marker>
    <marker id="arrowCyan" markerWidth="8" markerHeight="8" refX="7" refY="4" orient="auto">
      <path d="M0,0 L0,8 L8,4 z" fill="#06b6d4"/>
    </marker>
    <marker id="arrowPink" markerWidth="8" markerHeight="8" refX="7" refY="4" orient="auto">
      <path d="M0,0 L0,8 L8,4 z" fill="#ec4899"/>
    </marker>
    
    <!-- Shadow filter -->
    <filter id="shadow" x="-20%" y="-20%" width="140%" height="140%">
      <feDropShadow dx="0" dy="4" stdDeviation="6" flood-color="#000" flood-opacity="0.3"/>
    </filter>
    
    <!-- Background pattern -->
    <pattern id="grid" width="40" height="40" patternUnits="userSpaceOnUse">
      <path d="M 40 0 L 0 0 0 40" fill="none" stroke="rgba(148,163,184,0.05)" stroke-width="1"/>
    </pattern>
  </defs>
  
  <!-- Background -->
  <rect width="1200" height="800" fill="url(#bgGrad)"/>
  <rect width="1200" height="800" fill="url(#grid)"/>
  
  <!-- Decorative glows -->
  <ellipse cx="200" cy="180" rx="180" ry="120" fill="rgba(207,10,44,0.04)"/>
  <ellipse cx="600" cy="400" rx="250" ry="180" fill="rgba(139,92,246,0.03)"/>
  <ellipse cx="1000" cy="600" rx="180" ry="120" fill="rgba(16,185,129,0.04)"/>
  
  <!-- Title -->
  <text x="600" y="40" fill="#f1f5f9" font-size="28" font-weight="700" text-anchor="middle" font-family="SF Pro Display, -apple-system, sans-serif">环境搭建与模型部署架构</text>
  <text x="600" y="65" fill="#64748b" font-size="13" text-anchor="middle" font-family="monospace">ModelArts + Ascend + FunctionGraph · 端云协同部署方案</text>
  
  <!-- ==================== SECTION 1: 开发环境 ==================== -->
  
  <text x="50" y="105" fill="#f1f5f9" font-size="15" font-weight="600" font-family="SF Pro Display, sans-serif">① 开发环境搭建</text>
  
  <!-- Python Environment -->
  <rect x="40" y="120" width="160" height="115" rx="10" fill="rgba(59,130,246,0.12)" stroke="#3b82f6" stroke-width="2"/>
  <text x="120" y="143" fill="#3b82f6" font-size="12" font-weight="600" text-anchor="middle">🐍 Python 环境</text>
  <line x1="55" y1="153" x2="185" y2="153" stroke="rgba(59,130,246,0.3)" stroke-width="1"/>
  <text x="120" y="172" fill="#94a3b8" font-size="9" text-anchor="middle" font-family="monospace">Python 3.7+</text>
  <text x="120" y="188" fill="#64748b" font-size="8" text-anchor="middle">numpy, scipy, librosa</text>
  <text x="120" y="203" fill="#64748b" font-size="8" text-anchor="middle">moxing (OBS访问)</text>
  <text x="120" y="218" fill="#64748b" font-size="8" text-anchor="middle">requests (API调用)</text>
  
  <!-- MindSpore -->
  <rect x="220" y="120" width="160" height="115" rx="10" fill="url(#mindsporeGrad)" filter="url(#shadow)"/>
  <text x="300" y="143" fill="white" font-size="12" font-weight="600" text-anchor="middle">🧠 MindSpore</text>
  <line x1="235" y1="153" x2="365" y2="153" stroke="rgba(255,255,255,0.25)" stroke-width="1"/>
  <text x="300" y="172" fill="rgba(255,255,255,0.9)" font-size="9" text-anchor="middle" font-family="monospace">mindspore 1.8.0+</text>
  <text x="300" y="188" fill="rgba(255,255,255,0.7)" font-size="8" text-anchor="middle">CANN 5.1.0</text>
  <text x="300" y="203" fill="rgba(255,255,255,0.6)" font-size="8" text-anchor="middle">GRAPH_MODE 图优化</text>
  <text x="300" y="218" fill="rgba(255,255,255,0.5)" font-size="8" text-anchor="middle">自动微分 + 混合精度</text>
  
  <!-- Ascend NPU -->
  <rect x="400" y="120" width="160" height="115" rx="10" fill="url(#ascendGrad)" filter="url(#shadow)"/>
  <text x="480" y="143" fill="white" font-size="12" font-weight="600" text-anchor="middle">⚡ Ascend NPU</text>
  <line x1="415" y1="153" x2="545" y2="153" stroke="rgba(255,255,255,0.25)" stroke-width="1"/>
  <text x="480" y="172" fill="rgba(255,255,255,0.9)" font-size="9" text-anchor="middle">昇腾910/310</text>
  <text x="480" y="188" fill="rgba(255,255,255,0.7)" font-size="8" text-anchor="middle">AI Core 加速</text>
  <text x="480" y="203" fill="rgba(255,255,255,0.6)" font-size="8" text-anchor="middle">Graph Kernel融合</text>
  <text x="480" y="218" fill="rgba(255,255,255,0.5)" font-size="8" text-anchor="middle">算子自动调优</text>
  
  <!-- Environment Arrows -->
  <line x1="200" y1="177" x2="215" y2="177" stroke="#64748b" stroke-width="2" marker-end="url(#arrowWhite)"/>
  <line x1="380" y1="177" x2="395" y2="177" stroke="#64748b" stroke-width="2" marker-end="url(#arrowWhite)"/>
  
  <!-- ==================== SECTION 2: 训练流程 ==================== -->
  
  <text x="600" y="105" fill="#f1f5f9" font-size="15" font-weight="600" font-family="SF Pro Display, sans-serif">② 模型训练流程</text>
  
  <!-- OBS Storage -->
  <rect x="580" y="120" width="140" height="115" rx="10" fill="url(#obsGrad)" filter="url(#shadow)"/>
  <text x="650" y="143" fill="white" font-size="12" font-weight="600" text-anchor="middle">☁️ OBS存储</text>
  <line x1="595" y1="153" x2="705" y2="153" stroke="rgba(255,255,255,0.25)" stroke-width="1"/>
  <text x="650" y="172" fill="rgba(255,255,255,0.8)" font-size="8" text-anchor="middle">训练数据集</text>
  <text x="650" y="188" fill="rgba(255,255,255,0.7)" font-size="8" text-anchor="middle">模型检查点</text>
  <text x="650" y="203" fill="rgba(255,255,255,0.6)" font-size="8" text-anchor="middle">配置文件</text>
  <text x="650" y="218" fill="rgba(255,255,255,0.5)" font-size="8" text-anchor="middle" font-family="monospace">mox.file.copy</text>
  
  <!-- ModelArts Training -->
  <rect x="740" y="120" width="160" height="115" rx="10" fill="url(#modelartsGrad)" filter="url(#shadow)"/>
  <text x="820" y="143" fill="white" font-size="12" font-weight="600" text-anchor="middle">🚀 ModelArts训练</text>
  <line x1="755" y1="153" x2="885" y2="153" stroke="rgba(255,255,255,0.25)" stroke-width="1"/>
  <text x="820" y="172" fill="rgba(255,255,255,0.8)" font-size="8" text-anchor="middle" font-family="monospace">train.py</text>
  <text x="820" y="188" fill="rgba(255,255,255,0.7)" font-size="8" text-anchor="middle">Cosine LR + Warmup</text>
  <text x="820" y="203" fill="rgba(255,255,255,0.6)" font-size="8" text-anchor="middle">数据增强 + 早停</text>
  <text x="820" y="218" fill="rgba(255,255,255,0.5)" font-size="8" text-anchor="middle">Focal Loss</text>
  
  <!-- Model Output -->
  <rect x="920" y="120" width="140" height="115" rx="10" fill="rgba(16,185,129,0.15)" stroke="#10b981" stroke-width="2"/>
  <text x="990" y="143" fill="#10b981" font-size="12" font-weight="600" text-anchor="middle">📦 模型产物</text>
  <line x1="935" y1="153" x2="1045" y2="153" stroke="rgba(16,185,129,0.3)" stroke-width="1"/>
  <text x="990" y="172" fill="#94a3b8" font-size="8" text-anchor="middle" font-family="monospace">best_model.ckpt</text>
  <text x="990" y="188" fill="#64748b" font-size="8" text-anchor="middle" font-family="monospace">model.mindir</text>
  <text x="990" y="203" fill="#64748b" font-size="8" text-anchor="middle" font-family="monospace">config.json</text>
  <text x="990" y="218" fill="#64748b" font-size="8" text-anchor="middle">metrics.json</text>
  
  <!-- Training Arrows -->
  <line x1="720" y1="177" x2="735" y2="177" stroke="#3b82f6" stroke-width="2" marker-end="url(#arrowPurple)"/>
  <line x1="900" y1="177" x2="915" y2="177" stroke="#8b5cf6" stroke-width="2" marker-end="url(#arrowGreen)"/>
  
  <!-- ==================== SECTION 3: 在线服务部署 ==================== -->
  
  <text x="50" y="275" fill="#f1f5f9" font-size="15" font-weight="600" font-family="SF Pro Display, sans-serif">③ 在线服务部署</text>
  
  <!-- Model Registry -->
  <rect x="40" y="295" width="150" height="110" rx="10" fill="url(#obsGrad)" filter="url(#shadow)"/>
  <text x="115" y="318" fill="white" font-size="11" font-weight="600" text-anchor="middle">📋 模型注册</text>
  <line x1="55" y1="328" x2="175" y2="328" stroke="rgba(255,255,255,0.25)" stroke-width="1"/>
  <text x="115" y="348" fill="rgba(255,255,255,0.8)" font-size="8" text-anchor="middle" font-family="monospace">create_model()</text>
  <text x="115" y="364" fill="rgba(255,255,255,0.7)" font-size="8" text-anchor="middle">模型名称+版本</text>
  <text x="115" y="380" fill="rgba(255,255,255,0.6)" font-size="8" text-anchor="middle">OBS路径关联</text>
  <text x="115" y="396" fill="rgba(255,255,255,0.5)" font-size="8" text-anchor="middle">运行时配置</text>
  
  <!-- Online Service -->
  <rect x="220" y="295" width="170" height="110" rx="10" fill="url(#serviceGrad)" filter="url(#shadow)"/>
  <text x="305" y="318" fill="white" font-size="11" font-weight="600" text-anchor="middle">🌐 在线推理服务</text>
  <line x1="235" y1="328" x2="375" y2="328" stroke="rgba(255,255,255,0.25)" stroke-width="1"/>
  <text x="305" y="348" fill="rgba(255,255,255,0.8)" font-size="8" text-anchor="middle" font-family="monospace">deploy_service()</text>
  <text x="305" y="364" fill="rgba(255,255,255,0.7)" font-size="8" text-anchor="middle" font-family="monospace">customize_service.py</text>
  <text x="305" y="380" fill="rgba(255,255,255,0.6)" font-size="8" text-anchor="middle">实时推理 &lt;100ms</text>
  <text x="305" y="396" fill="rgba(255,255,255,0.5)" font-size="8" text-anchor="middle">弹性扩缩容</text>
  
  <!-- Service Pipeline Detail -->
  <rect x="420" y="295" width="280" height="110" rx="10" fill="rgba(30,41,59,0.8)" stroke="#475569" stroke-width="1"/>
  <text x="560" y="318" fill="#f1f5f9" font-size="11" font-weight="600" text-anchor="middle">推理服务流水线 (SingleNodeService)</text>
  <line x1="435" y1="328" x2="685" y2="328" stroke="rgba(71,85,105,0.5)" stroke-width="1"/>
  
  <!-- Pipeline steps -->
  <rect x="435" y="345" width="70" height="45" rx="6" fill="rgba(99,102,241,0.2)" stroke="#6366f1" stroke-width="1"/>
  <text x="470" y="365" fill="#818cf8" font-size="9" font-weight="500" text-anchor="middle">_preprocess</text>
  <text x="470" y="380" fill="#64748b" font-size="7" text-anchor="middle">JSON解析</text>
  
  <rect x="525" y="345" width="70" height="45" rx="6" fill="rgba(245,158,11,0.2)" stroke="#f59e0b" stroke-width="1"/>
  <text x="560" y="365" fill="#fbbf24" font-size="9" font-weight="500" text-anchor="middle">_inference</text>
  <text x="560" y="380" fill="#64748b" font-size="7" text-anchor="middle">模型推理</text>
  
  <rect x="615" y="345" width="70" height="45" rx="6" fill="rgba(16,185,129,0.2)" stroke="#10b981" stroke-width="1"/>
  <text x="650" y="365" fill="#34d399" font-size="9" font-weight="500" text-anchor="middle">_postprocess</text>
  <text x="650" y="380" fill="#64748b" font-size="7" text-anchor="middle">告警判定</text>
  
  <!-- Pipeline arrows -->
  <line x1="505" y1="367" x2="520" y2="367" stroke="#64748b" stroke-width="1.5" marker-end="url(#arrowWhite)"/>
  <line x1="595" y1="367" x2="610" y2="367" stroke="#64748b" stroke-width="1.5" marker-end="url(#arrowWhite)"/>
  
  <!-- Deploy Arrows -->
  <line x1="190" y1="350" x2="215" y2="350" stroke="#3b82f6" stroke-width="2" marker-end="url(#arrowGreen)"/>
  <line x1="390" y1="350" x2="415" y2="350" stroke="#10b981" stroke-width="2" marker-end="url(#arrowWhite)"/>
  
  <!-- ==================== SECTION 4: 端云协同 ==================== -->
  
  <text x="50" y="450" fill="#f1f5f9" font-size="15" font-weight="600" font-family="SF Pro Display, sans-serif">④ 端云协同架构</text>
  
  <!-- Edge Device -->
  <rect x="40" y="470" width="150" height="120" rx="10" fill="rgba(236,72,153,0.12)" stroke="#f472b6" stroke-width="2"/>
  <text x="115" y="495" fill="#f472b6" font-size="11" font-weight="600" text-anchor="middle">📱 边缘设备</text>
  <line x1="55" y1="505" x2="175" y2="505" stroke="rgba(236,72,153,0.3)" stroke-width="1"/>
  <text x="115" y="525" fill="#94a3b8" font-size="8" text-anchor="middle">智能手环/校徽</text>
  <text x="115" y="542" fill="#64748b" font-size="8" text-anchor="middle">麦克风采集</text>
  <text x="115" y="558" fill="#64748b" font-size="8" text-anchor="middle">陀螺仪/加速度计</text>
  <text x="115" y="575" fill="#64748b" font-size="8" text-anchor="middle">实时数据上报</text>
  
  <!-- FunctionGraph -->
  <rect x="230" y="470" width="160" height="120" rx="10" fill="url(#functionGrad)" filter="url(#shadow)"/>
  <text x="310" y="495" fill="white" font-size="11" font-weight="600" text-anchor="middle">⚡ FunctionGraph</text>
  <line x1="245" y1="505" x2="375" y2="505" stroke="rgba(255,255,255,0.25)" stroke-width="1"/>
  <text x="310" y="525" fill="rgba(255,255,255,0.8)" font-size="8" text-anchor="middle" font-family="monospace">index.py handler</text>
  <text x="310" y="542" fill="rgba(255,255,255,0.7)" font-size="8" text-anchor="middle">无服务器函数</text>
  <text x="310" y="558" fill="rgba(255,255,255,0.6)" font-size="8" text-anchor="middle">自动弹性扩展</text>
  <text x="310" y="575" fill="rgba(255,255,255,0.5)" font-size="8" text-anchor="middle">按调用计费</text>
  
  <!-- ModelArts Service -->
  <rect x="430" y="470" width="160" height="120" rx="10" fill="url(#modelartsGrad)" filter="url(#shadow)"/>
  <text x="510" y="495" fill="white" font-size="11" font-weight="600" text-anchor="middle">🧠 ModelArts服务</text>
  <line x1="445" y1="505" x2="575" y2="505" stroke="rgba(255,255,255,0.25)" stroke-width="1"/>
  <text x="510" y="525" fill="rgba(255,255,255,0.8)" font-size="8" text-anchor="middle">在线推理端点</text>
  <text x="510" y="542" fill="rgba(255,255,255,0.7)" font-size="8" text-anchor="middle">X-Auth-Token认证</text>
  <text x="510" y="558" fill="rgba(255,255,255,0.6)" font-size="8" text-anchor="middle">JSON请求/响应</text>
  <text x="510" y="575" fill="rgba(255,255,255,0.5)" font-size="8" text-anchor="middle">超时10s</text>
  
  <!-- Alert System -->
  <rect x="630" y="470" width="160" height="120" rx="10" fill="url(#apiGrad)" filter="url(#shadow)"/>
  <text x="710" y="495" fill="white" font-size="11" font-weight="600" text-anchor="middle">🚨 告警系统</text>
  <line x1="645" y1="505" x2="775" y2="505" stroke="rgba(255,255,255,0.25)" stroke-width="1"/>
  <text x="710" y="525" fill="rgba(255,255,255,0.8)" font-size="8" text-anchor="middle">告警级别判定</text>
  <text x="710" y="542" fill="rgba(255,255,255,0.7)" font-size="8" text-anchor="middle">NONE/LOW/MED/HIGH</text>
  <text x="710" y="558" fill="rgba(255,255,255,0.6)" font-size="8" text-anchor="middle">SMN消息通知</text>
  <text x="710" y="575" fill="rgba(255,255,255,0.5)" font-size="8" text-anchor="middle">短信/邮件/Webhook</text>
  
  <!-- Response -->
  <rect x="830" y="470" width="140" height="120" rx="10" fill="rgba(16,185,129,0.15)" stroke="#10b981" stroke-width="2"/>
  <text x="900" y="495" fill="#10b981" font-size="11" font-weight="600" text-anchor="middle">📊 响应结果</text>
  <line x1="845" y1="505" x2="955" y2="505" stroke="rgba(16,185,129,0.3)" stroke-width="1"/>
  <text x="900" y="525" fill="#94a3b8" font-size="8" text-anchor="middle" font-family="monospace">probability: 0.85</text>
  <text x="900" y="542" fill="#64748b" font-size="8" text-anchor="middle" font-family="monospace">alarm_level: HIGH</text>
  <text x="900" y="558" fill="#64748b" font-size="8" text-anchor="middle" font-family="monospace">attention: 0.6</text>
  <text x="900" y="575" fill="#64748b" font-size="8" text-anchor="middle">建议立即处理</text>
  
  <!-- End-Cloud Arrows -->
  <line x1="190" y1="530" x2="225" y2="530" stroke="#ec4899" stroke-width="2" marker-end="url(#arrowCyan)"/>
  <text x="208" y="520" fill="#64748b" font-size="7">HTTP</text>
  
  <line x1="390" y1="530" x2="425" y2="530" stroke="#06b6d4" stroke-width="2" marker-end="url(#arrowPurple)"/>
  <text x="408" y="520" fill="#64748b" font-size="7">API</text>
  
  <line x1="590" y1="530" x2="625" y2="530" stroke="#8b5cf6" stroke-width="2" marker-end="url(#arrowPink)"/>
  <text x="608" y="520" fill="#64748b" font-size="7">结果</text>
  
  <line x1="790" y1="530" x2="825" y2="530" stroke="#ec4899" stroke-width="2" marker-end="url(#arrowGreen)"/>
  <text x="808" y="520" fill="#64748b" font-size="7">返回</text>
  
  <!-- ==================== SECTION 5: 告警级别 ==================== -->
  
  <text x="50" y="630" fill="#f1f5f9" font-size="15" font-weight="600" font-family="SF Pro Display, sans-serif">⑤ 告警级别定义</text>
  
  <!-- Alert Levels -->
  <rect x="40" y="650" width="120" height="50" rx="8" fill="rgba(34,197,94,0.15)" stroke="#22c55e" stroke-width="2"/>
  <text x="100" y="672" fill="#22c55e" font-size="11" font-weight="600" text-anchor="middle">NONE</text>
  <text x="100" y="690" fill="#64748b" font-size="9" text-anchor="middle">P &lt; 0.5 正常</text>
  
  <rect x="180" y="650" width="120" height="50" rx="8" fill="rgba(250,204,21,0.15)" stroke="#facc15" stroke-width="2"/>
  <text x="240" y="672" fill="#facc15" font-size="11" font-weight="600" text-anchor="middle">LOW</text>
  <text x="240" y="690" fill="#64748b" font-size="9" text-anchor="middle">0.5≤P&lt;0.7 关注</text>
  
  <rect x="320" y="650" width="120" height="50" rx="8" fill="rgba(251,146,60,0.15)" stroke="#fb923c" stroke-width="2"/>
  <text x="380" y="672" fill="#fb923c" font-size="11" font-weight="600" text-anchor="middle">MEDIUM</text>
  <text x="380" y="690" fill="#64748b" font-size="9" text-anchor="middle">0.7≤P&lt;0.85 查看</text>
  
  <rect x="460" y="650" width="120" height="50" rx="8" fill="rgba(239,68,68,0.15)" stroke="#ef4444" stroke-width="2"/>
  <text x="520" y="672" fill="#ef4444" font-size="11" font-weight="600" text-anchor="middle">HIGH</text>
  <text x="520" y="690" fill="#64748b" font-size="9" text-anchor="middle">P≥0.85 立即处理</text>
  
  <!-- Level Arrows -->
  <line x1="160" y1="675" x2="175" y2="675" stroke="#64748b" stroke-width="1.5" marker-end="url(#arrowWhite)"/>
  <line x1="300" y1="675" x2="315" y2="675" stroke="#64748b" stroke-width="1.5" marker-end="url(#arrowWhite)"/>
  <line x1="440" y1="675" x2="455" y2="675" stroke="#64748b" stroke-width="1.5" marker-end="url(#arrowWhite)"/>
  
  <!-- ==================== API Details ==================== -->
  
  <rect x="620" y="630" width="360" height="120" rx="10" fill="rgba(30,41,59,0.7)" stroke="#475569" stroke-width="1"/>
  <text x="640" y="655" fill="#f1f5f9" font-size="12" font-weight="600" font-family="SF Pro Display, sans-serif">API 接口说明</text>
  <line x1="635" y1="665" x2="965" y2="665" stroke="rgba(71,85,105,0.5)" stroke-width="1"/>
  
  <text x="640" y="685" fill="#64748b" font-size="9" font-family="monospace">POST /v1/infers/{service_id}</text>
  <text x="640" y="702" fill="#64748b" font-size="9" font-family="monospace">Headers: X-Auth-Token, Content-Type</text>
  <text x="640" y="719" fill="#64748b" font-size="9" font-family="monospace">Body: {"audio": [...], "imu": [...]}</text>
  <text x="640" y="736" fill="#64748b" font-size="9" font-family="monospace">Response: {probability, alarm_level, ...}</text>
  
  <!-- Team -->
  <text x="1100" y="780" fill="#475569" font-size="10" text-anchor="end" font-family="SF Pro Display, sans-serif">三英战ICT团队</text>
</svg>
