<svg xmlns="http://www.w3.org/2000/svg" viewBox="0 0 1200 850" width="1200" height="850">
  <defs>
    <!-- Gradients -->
    <linearGradient id="bgGrad" x1="0%" y1="0%" x2="100%" y2="100%">
      <stop offset="0%" stop-color="#0f172a"/>
      <stop offset="50%" stop-color="#1a1a2e"/>
      <stop offset="100%" stop-color="#0f172a"/>
    </linearGradient>
    
    <linearGradient id="huaweiGrad" x1="0%" y1="0%" x2="100%" y2="100%">
      <stop offset="0%" stop-color="#cf0a2c"/>
      <stop offset="100%" stop-color="#a00820"/>
    </linearGradient>
    
    <linearGradient id="mindsporeGrad" x1="0%" y1="0%" x2="100%" y2="100%">
      <stop offset="0%" stop-color="#6366f1"/>
      <stop offset="100%" stop-color="#4f46e5"/>
    </linearGradient>
    
    <linearGradient id="modelartsGrad" x1="0%" y1="0%" x2="100%" y2="100%">
      <stop offset="0%" stop-color="#ec4899"/>
      <stop offset="100%" stop-color="#db2777"/>
    </linearGradient>
    
    <linearGradient id="iotdaGrad" x1="0%" y1="0%" x2="100%" y2="100%">
      <stop offset="0%" stop-color="#f59e0b"/>
      <stop offset="100%" stop-color="#d97706"/>
    </linearGradient>
    
    <linearGradient id="obsGrad" x1="0%" y1="0%" x2="100%" y2="100%">
      <stop offset="0%" stop-color="#06b6d4"/>
      <stop offset="100%" stop-color="#0891b2"/>
    </linearGradient>
    
    <linearGradient id="ascendGrad" x1="0%" y1="0%" x2="100%" y2="100%">
      <stop offset="0%" stop-color="#f97316"/>
      <stop offset="100%" stop-color="#ea580c"/>
    </linearGradient>
    
    <linearGradient id="orangepiGrad" x1="0%" y1="0%" x2="100%" y2="100%">
      <stop offset="0%" stop-color="#8b5cf6"/>
      <stop offset="100%" stop-color="#7c3aed"/>
    </linearGradient>
    
    <linearGradient id="k01Grad" x1="0%" y1="0%" x2="100%" y2="100%">
      <stop offset="0%" stop-color="#10b981"/>
      <stop offset="100%" stop-color="#059669"/>
    </linearGradient>
    
    <linearGradient id="sleGrad" x1="0%" y1="0%" x2="100%" y2="100%">
      <stop offset="0%" stop-color="#3b82f6"/>
      <stop offset="100%" stop-color="#2563eb"/>
    </linearGradient>
    
    <linearGradient id="pythonGrad" x1="0%" y1="0%" x2="100%" y2="100%">
      <stop offset="0%" stop-color="#fbbf24"/>
      <stop offset="100%" stop-color="#f59e0b"/>
    </linearGradient>
    
    <linearGradient id="cGrad" x1="0%" y1="0%" x2="100%" y2="100%">
      <stop offset="0%" stop-color="#60a5fa"/>
      <stop offset="100%" stop-color="#3b82f6"/>
    </linearGradient>
    
    <!-- Arrow markers -->
    <marker id="arrowWhite" markerWidth="8" markerHeight="8" refX="7" refY="4" orient="auto">
      <path d="M0,0 L0,8 L8,4 z" fill="#94a3b8"/>
    </marker>
    <marker id="arrowRed" markerWidth="8" markerHeight="8" refX="7" refY="4" orient="auto">
      <path d="M0,0 L0,8 L8,4 z" fill="#ef4444"/>
    </marker>
    
    <!-- Shadow filter -->
    <filter id="shadow" x="-20%" y="-20%" width="140%" height="140%">
      <feDropShadow dx="0" dy="4" stdDeviation="8" flood-color="#000" flood-opacity="0.3"/>
    </filter>
    
    <!-- Background pattern -->
    <pattern id="grid" width="40" height="40" patternUnits="userSpaceOnUse">
      <path d="M 40 0 L 0 0 0 40" fill="none" stroke="rgba(148,163,184,0.04)" stroke-width="1"/>
    </pattern>
  </defs>
  
  <!-- Background -->
  <rect width="1200" height="850" fill="url(#bgGrad)"/>
  <rect width="1200" height="850" fill="url(#grid)"/>
  
  <!-- Decorative glows -->
  <ellipse cx="300" cy="200" rx="250" ry="150" fill="rgba(207,10,44,0.04)"/>
  <ellipse cx="900" cy="200" rx="250" ry="150" fill="rgba(139,92,246,0.04)"/>
  <ellipse cx="600" cy="550" rx="300" ry="200" fill="rgba(16,185,129,0.04)"/>
  
  <!-- Title -->
  <text x="600" y="42" fill="#f1f5f9" font-size="32" font-weight="700" text-anchor="middle" font-family="SF Pro Display, -apple-system, sans-serif">开发平台架构</text>
  <text x="600" y="70" fill="#64748b" font-size="14" text-anchor="middle" font-family="monospace">华为全栈技术 · 端-边-云协同开发</text>
  
  <!-- ==================== 华为云平台 ==================== -->
  
  <rect x="40" y="95" width="1120" height="200" rx="16" fill="rgba(207,10,44,0.08)" stroke="rgba(207,10,44,0.3)" stroke-width="2"/>
  
  <!-- Huawei Cloud Logo Area -->
  <rect x="55" y="105" width="140" height="35" rx="8" fill="url(#huaweiGrad)" filter="url(#shadow)"/>
  <text x="125" y="128" fill="white" font-size="14" font-weight="700" text-anchor="middle">☁️ 华为云</text>
  
  <text x="210" y="128" fill="#64748b" font-size="11" font-family="monospace">云侧开发平台 · AI训练与部署 · 物联网接入</text>
  
  <!-- IoTDA -->
  <rect x="55" y="150" width="160" height="120" rx="10" fill="url(#iotdaGrad)" filter="url(#shadow)"/>
  <text x="135" y="175" fill="white" font-size="13" font-weight="600" text-anchor="middle">📡 IoT设备接入</text>
  <line x1="70" y1="185" x2="200" y2="185" stroke="rgba(255,255,255,0.25)" stroke-width="1"/>
  <text x="135" y="205" fill="rgba(255,255,255,0.9)" font-size="9" text-anchor="middle">IoTDA平台</text>
  <text x="135" y="222" fill="rgba(255,255,255,0.7)" font-size="9" text-anchor="middle">MQTT/HTTPS协议</text>
  <text x="135" y="239" fill="rgba(255,255,255,0.6)" font-size="9" text-anchor="middle">设备影子 · 规则引擎</text>
  <text x="135" y="256" fill="rgba(255,255,255,0.5)" font-size="9" text-anchor="middle">消息路由转发</text>
  
  <!-- OBS + DIS -->
  <rect x="235" y="150" width="160" height="120" rx="10" fill="url(#obsGrad)" filter="url(#shadow)"/>
  <text x="315" y="175" fill="white" font-size="13" font-weight="600" text-anchor="middle">🗄️ 数据存储</text>
  <line x1="250" y1="185" x2="380" y2="185" stroke="rgba(255,255,255,0.25)" stroke-width="1"/>
  <text x="315" y="205" fill="rgba(255,255,255,0.9)" font-size="9" text-anchor="middle">OBS对象存储</text>
  <text x="315" y="222" fill="rgba(255,255,255,0.7)" font-size="9" text-anchor="middle">DIS数据接入服务</text>
  <text x="315" y="239" fill="rgba(255,255,255,0.6)" font-size="9" text-anchor="middle">模型文件 · 训练数据</text>
  <text x="315" y="256" fill="rgba(255,255,255,0.5)" font-size="9" text-anchor="middle">事件日志归档</text>
  
  <!-- ModelArts -->
  <rect x="415" y="150" width="200" height="120" rx="10" fill="url(#modelartsGrad)" filter="url(#shadow)"/>
  <text x="515" y="175" fill="white" font-size="13" font-weight="600" text-anchor="middle">🧠 AI开发平台</text>
  <line x1="430" y1="185" x2="600" y2="185" stroke="rgba(255,255,255,0.25)" stroke-width="1"/>
  <text x="515" y="205" fill="rgba(255,255,255,0.9)" font-size="9" text-anchor="middle">ModelArts一站式平台</text>
  <text x="515" y="222" fill="rgba(255,255,255,0.7)" font-size="9" text-anchor="middle">Notebook开发 · 训练作业</text>
  <text x="515" y="239" fill="rgba(255,255,255,0.6)" font-size="9" text-anchor="middle">模型管理 · 在线服务部署</text>
  <text x="515" y="256" fill="rgba(255,255,255,0.5)" font-size="9" text-anchor="middle">自动学习 · 增量训练</text>
  
  <!-- MindSpore -->
  <rect x="635" y="150" width="170" height="120" rx="10" fill="url(#mindsporeGrad)" filter="url(#shadow)"/>
  <text x="720" y="175" fill="white" font-size="13" font-weight="600" text-anchor="middle">🔮 MindSpore</text>
  <line x1="650" y1="185" x2="790" y2="185" stroke="rgba(255,255,255,0.25)" stroke-width="1"/>
  <text x="720" y="205" fill="rgba(255,255,255,0.9)" font-size="9" text-anchor="middle">深度学习框架</text>
  <text x="720" y="222" fill="rgba(255,255,255,0.7)" font-size="9" text-anchor="middle">GRAPH_MODE图优化</text>
  <text x="720" y="239" fill="rgba(255,255,255,0.6)" font-size="9" text-anchor="middle">自动微分 · 混合精度</text>
  <text x="720" y="256" fill="rgba(255,255,255,0.5)" font-size="9" text-anchor="middle">昇腾原生支持</text>
  
  <!-- FunctionGraph + SMN -->
  <rect x="825" y="150" width="160" height="120" rx="10" fill="rgba(139,92,246,0.2)" stroke="#8b5cf6" stroke-width="2"/>
  <text x="905" y="175" fill="#a78bfa" font-size="13" font-weight="600" text-anchor="middle">⚡ 无服务器</text>
  <line x1="840" y1="185" x2="970" y2="185" stroke="rgba(139,92,246,0.3)" stroke-width="1"/>
  <text x="905" y="205" fill="#94a3b8" font-size="9" text-anchor="middle">FunctionGraph</text>
  <text x="905" y="222" fill="#64748b" font-size="9" text-anchor="middle">SMN消息通知</text>
  <text x="905" y="239" fill="#64748b" font-size="9" text-anchor="middle">事件触发 · 云函数</text>
  <text x="905" y="256" fill="#64748b" font-size="9" text-anchor="middle">短信/邮件/Webhook</text>
  
  <!-- API -->
  <rect x="1005" y="150" width="140" height="120" rx="10" fill="rgba(251,191,36,0.15)" stroke="#fbbf24" stroke-width="2"/>
  <text x="1075" y="175" fill="#fbbf24" font-size="13" font-weight="600" text-anchor="middle">🔌 API网关</text>
  <line x1="1020" y1="185" x2="1130" y2="185" stroke="rgba(251,191,36,0.3)" stroke-width="1"/>
  <text x="1075" y="205" fill="#94a3b8" font-size="9" text-anchor="middle">APIG服务</text>
  <text x="1075" y="222" fill="#64748b" font-size="9" text-anchor="middle">RESTful接口</text>
  <text x="1075" y="239" fill="#64748b" font-size="9" text-anchor="middle">认证鉴权</text>
  <text x="1075" y="256" fill="#64748b" font-size="9" text-anchor="middle">流量控制</text>
  
  <!-- ==================== 边侧平台 ==================== -->
  
  <rect x="40" y="320" width="560" height="220" rx="16" fill="rgba(139,92,246,0.08)" stroke="rgba(139,92,246,0.3)" stroke-width="2"/>
  
  <rect x="55" y="330" width="180" height="35" rx="8" fill="url(#orangepiGrad)" filter="url(#shadow)"/>
  <text x="145" y="353" fill="white" font-size="14" font-weight="700" text-anchor="middle">🍊 边侧开发平台</text>
  
  <text x="250" y="353" fill="#64748b" font-size="11" font-family="monospace">香橙派 AI Pro · 昇腾310 NPU</text>
  
  <!-- Orange Pi Hardware -->
  <rect x="55" y="375" width="170" height="140" rx="10" fill="url(#orangepiGrad)" filter="url(#shadow)"/>
  <text x="140" y="400" fill="white" font-size="12" font-weight="600" text-anchor="middle">🖥️ 香橙派 AI Pro</text>
  <line x1="70" y1="410" x2="210" y2="410" stroke="rgba(255,255,255,0.25)" stroke-width="1"/>
  <text x="140" y="430" fill="rgba(255,255,255,0.9)" font-size="9" text-anchor="middle">RK3588 8核处理器</text>
  <text x="140" y="447" fill="rgba(255,255,255,0.7)" font-size="9" text-anchor="middle">16GB LPDDR4X</text>
  <text x="140" y="464" fill="rgba(255,255,255,0.6)" font-size="9" text-anchor="middle">64GB eMMC存储</text>
  <text x="140" y="481" fill="rgba(255,255,255,0.5)" font-size="9" text-anchor="middle">Ubuntu 22.04 LTS</text>
  <text x="140" y="498" fill="rgba(255,255,255,0.4)" font-size="9" text-anchor="middle">UART/GPIO接口</text>
  
  <!-- Ascend 310 -->
  <rect x="245" y="375" width="170" height="140" rx="10" fill="url(#ascendGrad)" filter="url(#shadow)"/>
  <text x="330" y="400" fill="white" font-size="12" font-weight="600" text-anchor="middle">⚡ 昇腾310 NPU</text>
  <line x1="260" y1="410" x2="400" y2="410" stroke="rgba(255,255,255,0.25)" stroke-width="1"/>
  <text x="330" y="430" fill="rgba(255,255,255,0.9)" font-size="9" text-anchor="middle">AI推理加速器</text>
  <text x="330" y="447" fill="rgba(255,255,255,0.7)" font-size="9" text-anchor="middle">22 TOPS INT8算力</text>
  <text x="330" y="464" fill="rgba(255,255,255,0.6)" font-size="9" text-anchor="middle">CANN 5.1.0</text>
  <text x="330" y="481" fill="rgba(255,255,255,0.5)" font-size="9" text-anchor="middle">MindSpore Lite</text>
  <text x="330" y="498" fill="rgba(255,255,255,0.4)" font-size="9" text-anchor="middle">低功耗高效推理</text>
  
  <!-- Edge Software -->
  <rect x="435" y="375" width="150" height="140" rx="10" fill="url(#pythonGrad)" filter="url(#shadow)"/>
  <text x="510" y="400" fill="white" font-size="12" font-weight="600" text-anchor="middle">🐍 边侧软件栈</text>
  <line x1="450" y1="410" x2="570" y2="410" stroke="rgba(255,255,255,0.25)" stroke-width="1"/>
  <text x="510" y="430" fill="rgba(255,255,255,0.9)" font-size="9" text-anchor="middle">Python 3.8+</text>
  <text x="510" y="447" fill="rgba(255,255,255,0.7)" font-size="9" text-anchor="middle">MindSpore推理</text>
  <text x="510" y="464" fill="rgba(255,255,255,0.6)" font-size="9" text-anchor="middle">NumPy/SciPy</text>
  <text x="510" y="481" fill="rgba(255,255,255,0.5)" font-size="9" text-anchor="middle">paho-mqtt</text>
  <text x="510" y="498" fill="rgba(255,255,255,0.4)" font-size="9" text-anchor="middle">pyserial串口通信</text>
  
  <!-- ==================== 端侧平台 ==================== -->
  
  <rect x="620" y="320" width="540" height="220" rx="16" fill="rgba(16,185,129,0.08)" stroke="rgba(16,185,129,0.3)" stroke-width="2"/>
  
  <rect x="635" y="330" width="180" height="35" rx="8" fill="url(#k01Grad)" filter="url(#shadow)"/>
  <text x="725" y="353" fill="white" font-size="14" font-weight="700" text-anchor="middle">📱 端侧开发平台</text>
  
  <text x="830" y="353" fill="#64748b" font-size="11" font-family="monospace">K01 MCU · D02 星闪模组</text>
  
  <!-- K01 MCU -->
  <rect x="635" y="375" width="160" height="140" rx="10" fill="url(#k01Grad)" filter="url(#shadow)"/>
  <text x="715" y="400" fill="white" font-size="12" font-weight="600" text-anchor="middle">🔌 K01 主控</text>
  <line x1="650" y1="410" x2="780" y2="410" stroke="rgba(255,255,255,0.25)" stroke-width="1"/>
  <text x="715" y="430" fill="rgba(255,255,255,0.9)" font-size="9" text-anchor="middle">海思Hi3861芯片</text>
  <text x="715" y="447" fill="rgba(255,255,255,0.7)" font-size="9" text-anchor="middle">RISC-V内核 160MHz</text>
  <text x="715" y="464" fill="rgba(255,255,255,0.6)" font-size="9" text-anchor="middle">352KB SRAM</text>
  <text x="715" y="481" fill="rgba(255,255,255,0.5)" font-size="9" text-anchor="middle">LiteOS-M系统</text>
  <text x="715" y="498" fill="rgba(255,255,255,0.4)" font-size="9" text-anchor="middle">低功耗设计</text>
  
  <!-- D02 SLE -->
  <rect x="815" y="375" width="160" height="140" rx="10" fill="url(#sleGrad)" filter="url(#shadow)"/>
  <text x="895" y="400" fill="white" font-size="12" font-weight="600" text-anchor="middle">⭐ D02 星闪</text>
  <line x1="830" y1="410" x2="960" y2="410" stroke="rgba(255,255,255,0.25)" stroke-width="1"/>
  <text x="895" y="430" fill="rgba(255,255,255,0.9)" font-size="9" text-anchor="middle">SparkLink SLE</text>
  <text x="895" y="447" fill="rgba(255,255,255,0.7)" font-size="9" text-anchor="middle">低延迟 &lt;1ms</text>
  <text x="895" y="464" fill="rgba(255,255,255,0.6)" font-size="9" text-anchor="middle">低功耗通信</text>
  <text x="895" y="481" fill="rgba(255,255,255,0.5)" font-size="9" text-anchor="middle">双向数据传输</text>
  <text x="895" y="498" fill="rgba(255,255,255,0.4)" font-size="9" text-anchor="middle">UART桥接边侧</text>
  
  <!-- Device Software -->
  <rect x="995" y="375" width="150" height="140" rx="10" fill="url(#cGrad)" filter="url(#shadow)"/>
  <text x="1070" y="400" fill="white" font-size="12" font-weight="600" text-anchor="middle">💻 端侧软件栈</text>
  <line x1="1010" y1="410" x2="1130" y2="410" stroke="rgba(255,255,255,0.25)" stroke-width="1"/>
  <text x="1070" y="430" fill="rgba(255,255,255,0.9)" font-size="9" text-anchor="middle">C语言开发</text>
  <text x="1070" y="447" fill="rgba(255,255,255,0.7)" font-size="9" text-anchor="middle">DevEco Device Tool</text>
  <text x="1070" y="464" fill="rgba(255,255,255,0.6)" font-size="9" text-anchor="middle">OpenHarmony SDK</text>
  <text x="1070" y="481" fill="rgba(255,255,255,0.5)" font-size="9" text-anchor="middle">HDF驱动框架</text>
  <text x="1070" y="498" fill="rgba(255,255,255,0.4)" font-size="9" text-anchor="middle">传感器HAL</text>
  
  <!-- ==================== 开发工具链 ==================== -->
  
  <rect x="40" y="565" width="1120" height="150" rx="16" fill="rgba(251,191,36,0.08)" stroke="rgba(251,191,36,0.3)" stroke-width="2"/>
  
  <rect x="55" y="575" width="160" height="35" rx="8" fill="url(#pythonGrad)" filter="url(#shadow)"/>
  <text x="135" y="598" fill="white" font-size="14" font-weight="700" text-anchor="middle">🛠️ 开发工具链</text>
  
  <text x="230" y="598" fill="#64748b" font-size="11" font-family="monospace">IDE · SDK · 调试工具 · 版本管理</text>
  
  <!-- Cloud Dev Tools -->
  <rect x="55" y="620" width="200" height="80" rx="10" fill="rgba(236,72,153,0.15)" stroke="#ec4899" stroke-width="2"/>
  <text x="155" y="645" fill="#f472b6" font-size="11" font-weight="600" text-anchor="middle">☁️ 云端开发</text>
  <line x1="70" y1="655" x2="240" y2="655" stroke="rgba(236,72,153,0.3)" stroke-width="1"/>
  <text x="155" y="673" fill="#94a3b8" font-size="9" text-anchor="middle">ModelArts Notebook</text>
  <text x="155" y="688" fill="#64748b" font-size="9" text-anchor="middle">JupyterLab · VS Code Web</text>
  
  <!-- Edge Dev Tools -->
  <rect x="275" y="620" width="200" height="80" rx="10" fill="rgba(139,92,246,0.15)" stroke="#8b5cf6" stroke-width="2"/>
  <text x="375" y="645" fill="#a78bfa" font-size="11" font-weight="600" text-anchor="middle">🖥️ 边侧开发</text>
  <line x1="290" y1="655" x2="460" y2="655" stroke="rgba(139,92,246,0.3)" stroke-width="1"/>
  <text x="375" y="673" fill="#94a3b8" font-size="9" text-anchor="middle">VS Code + SSH Remote</text>
  <text x="375" y="688" fill="#64748b" font-size="9" text-anchor="middle">PyCharm · Python调试</text>
  
  <!-- Device Dev Tools -->
  <rect x="495" y="620" width="200" height="80" rx="10" fill="rgba(16,185,129,0.15)" stroke="#10b981" stroke-width="2"/>
  <text x="595" y="645" fill="#34d399" font-size="11" font-weight="600" text-anchor="middle">📱 端侧开发</text>
  <line x1="510" y1="655" x2="680" y2="655" stroke="rgba(16,185,129,0.3)" stroke-width="1"/>
  <text x="595" y="673" fill="#94a3b8" font-size="9" text-anchor="middle">DevEco Device Tool</text>
  <text x="595" y="688" fill="#64748b" font-size="9" text-anchor="middle">HiBurn烧录 · J-Link调试</text>
  
  <!-- Debug & Test -->
  <rect x="715" y="620" width="200" height="80" rx="10" fill="rgba(6,182,212,0.15)" stroke="#06b6d4" stroke-width="2"/>
  <text x="815" y="645" fill="#22d3ee" font-size="11" font-weight="600" text-anchor="middle">🔍 调试测试</text>
  <line x1="730" y1="655" x2="900" y2="655" stroke="rgba(6,182,212,0.3)" stroke-width="1"/>
  <text x="815" y="673" fill="#94a3b8" font-size="9" text-anchor="middle">串口调试 · MQTT测试</text>
  <text x="815" y="688" fill="#64748b" font-size="9" text-anchor="middle">Postman · Wireshark</text>
  
  <!-- Version Control -->
  <rect x="935" y="620" width="210" height="80" rx="10" fill="rgba(251,191,36,0.15)" stroke="#fbbf24" stroke-width="2"/>
  <text x="1040" y="645" fill="#fbbf24" font-size="11" font-weight="600" text-anchor="middle">📦 版本管理</text>
  <line x1="950" y1="655" x2="1130" y2="655" stroke="rgba(251,191,36,0.3)" stroke-width="1"/>
  <text x="1040" y="673" fill="#94a3b8" font-size="9" text-anchor="middle">Git · GitHub/Gitee</text>
  <text x="1040" y="688" fill="#64748b" font-size="9" text-anchor="middle">CI/CD · Docker</text>
  
  <!-- ==================== 技术栈总览 ==================== -->
  
  <rect x="40" y="735" width="1120" height="95" rx="12" fill="rgba(30,41,59,0.6)" stroke="rgba(71,85,105,0.3)" stroke-width="1"/>
  
  <text x="60" y="760" fill="#f1f5f9" font-size="13" font-weight="600" font-family="SF Pro Display, sans-serif">核心技术栈</text>
  
  <!-- Tech Stack Items -->
  <rect x="160" y="750" width="80" height="22" rx="4" fill="url(#huaweiGrad)"/>
  <text x="200" y="765" fill="white" font-size="9" font-weight="500" text-anchor="middle">华为云</text>
  
  <rect x="250" y="750" width="80" height="22" rx="4" fill="url(#mindsporeGrad)"/>
  <text x="290" y="765" fill="white" font-size="9" font-weight="500" text-anchor="middle">MindSpore</text>
  
  <rect x="340" y="750" width="80" height="22" rx="4" fill="url(#ascendGrad)"/>
  <text x="380" y="765" fill="white" font-size="9" font-weight="500" text-anchor="middle">昇腾NPU</text>
  
  <rect x="430" y="750" width="90" height="22" rx="4" fill="url(#modelartsGrad)"/>
  <text x="475" y="765" fill="white" font-size="9" font-weight="500" text-anchor="middle">ModelArts</text>
  
  <rect x="530" y="750" width="70" height="22" rx="4" fill="url(#iotdaGrad)"/>
  <text x="565" y="765" fill="white" font-size="9" font-weight="500" text-anchor="middle">IoTDA</text>
  
  <rect x="610" y="750" width="90" height="22" rx="4" fill="url(#orangepiGrad)"/>
  <text x="655" y="765" fill="white" font-size="9" font-weight="500" text-anchor="middle">香橙派</text>
  
  <rect x="710" y="750" width="60" height="22" rx="4" fill="url(#k01Grad)"/>
  <text x="740" y="765" fill="white" font-size="9" font-weight="500" text-anchor="middle">K01</text>
  
  <rect x="780" y="750" width="70" height="22" rx="4" fill="url(#sleGrad)"/>
  <text x="815" y="765" fill="white" font-size="9" font-weight="500" text-anchor="middle">星闪SLE</text>
  
  <rect x="860" y="750" width="70" height="22" rx="4" fill="url(#pythonGrad)"/>
  <text x="895" y="765" fill="white" font-size="9" font-weight="500" text-anchor="middle">Python</text>
  
  <rect x="940" y="750" width="50" height="22" rx="4" fill="url(#cGrad)"/>
  <text x="965" y="765" fill="white" font-size="9" font-weight="500" text-anchor="middle">C</text>
  
  <!-- Summary -->
  <text x="60" y="800" fill="#64748b" font-size="11" font-family="SF Pro Display, sans-serif">平台特点:</text>
  <text x="130" y="800" fill="#94a3b8" font-size="10">全栈华为技术 · 端边云协同开发 · AI原生支持 · 低代码快速迭代 · 一键部署上线</text>
  
  <text x="1100" y="818" fill="#475569" font-size="10" text-anchor="end" font-family="SF Pro Display, sans-serif">三英战ICT · 华中师范大学</text>
</svg>
