<svg xmlns="http://www.w3.org/2000/svg" viewBox="0 0 1200 900" width="1200" height="900">
  <defs>
    <!-- Gradients -->
    <linearGradient id="bgGrad" x1="0%" y1="0%" x2="100%" y2="100%">
      <stop offset="0%" stop-color="#0f172a"/>
      <stop offset="50%" stop-color="#1a1a2e"/>
      <stop offset="100%" stop-color="#0f172a"/>
    </linearGradient>
    
    <linearGradient id="cloudGrad" x1="0%" y1="0%" x2="100%" y2="100%">
      <stop offset="0%" stop-color="#3b82f6"/>
      <stop offset="100%" stop-color="#1d4ed8"/>
    </linearGradient>
    
    <linearGradient id="edgeGrad" x1="0%" y1="0%" x2="100%" y2="100%">
      <stop offset="0%" stop-color="#8b5cf6"/>
      <stop offset="100%" stop-color="#6d28d9"/>
    </linearGradient>
    
    <linearGradient id="deviceGrad" x1="0%" y1="0%" x2="100%" y2="100%">
      <stop offset="0%" stop-color="#10b981"/>
      <stop offset="100%" stop-color="#059669"/>
    </linearGradient>
    
    <linearGradient id="iotdaGrad" x1="0%" y1="0%" x2="100%" y2="100%">
      <stop offset="0%" stop-color="#f59e0b"/>
      <stop offset="100%" stop-color="#d97706"/>
    </linearGradient>
    
    <linearGradient id="modelartsGrad" x1="0%" y1="0%" x2="100%" y2="100%">
      <stop offset="0%" stop-color="#ec4899"/>
      <stop offset="100%" stop-color="#db2777"/>
    </linearGradient>
    
    <linearGradient id="obsGrad" x1="0%" y1="0%" x2="100%" y2="100%">
      <stop offset="0%" stop-color="#06b6d4"/>
      <stop offset="100%" stop-color="#0891b2"/>
    </linearGradient>
    
    <linearGradient id="sensorGrad" x1="0%" y1="0%" x2="100%" y2="100%">
      <stop offset="0%" stop-color="#22c55e"/>
      <stop offset="100%" stop-color="#16a34a"/>
    </linearGradient>
    
    <linearGradient id="alarmGrad" x1="0%" y1="0%" x2="100%" y2="100%">
      <stop offset="0%" stop-color="#ef4444"/>
      <stop offset="100%" stop-color="#dc2626"/>
    </linearGradient>
    
    <linearGradient id="policeGrad" x1="0%" y1="0%" x2="100%" y2="100%">
      <stop offset="0%" stop-color="#1e40af"/>
      <stop offset="100%" stop-color="#1e3a8a"/>
    </linearGradient>
    
    <linearGradient id="securityGrad" x1="0%" y1="0%" x2="100%" y2="100%">
      <stop offset="0%" stop-color="#7c3aed"/>
      <stop offset="100%" stop-color="#5b21b6"/>
    </linearGradient>
    
    <linearGradient id="trainGrad" x1="0%" y1="0%" x2="100%" y2="100%">
      <stop offset="0%" stop-color="#14b8a6"/>
      <stop offset="100%" stop-color="#0d9488"/>
    </linearGradient>
    
    <!-- Arrow markers -->
    <marker id="arrowWhite" markerWidth="8" markerHeight="8" refX="7" refY="4" orient="auto">
      <path d="M0,0 L0,8 L8,4 z" fill="#94a3b8"/>
    </marker>
    <marker id="arrowBlue" markerWidth="8" markerHeight="8" refX="7" refY="4" orient="auto">
      <path d="M0,0 L0,8 L8,4 z" fill="#3b82f6"/>
    </marker>
    <marker id="arrowPurple" markerWidth="8" markerHeight="8" refX="7" refY="4" orient="auto">
      <path d="M0,0 L0,8 L8,4 z" fill="#8b5cf6"/>
    </marker>
    <marker id="arrowGreen" markerWidth="8" markerHeight="8" refX="7" refY="4" orient="auto">
      <path d="M0,0 L0,8 L8,4 z" fill="#10b981"/>
    </marker>
    <marker id="arrowOrange" markerWidth="8" markerHeight="8" refX="7" refY="4" orient="auto">
      <path d="M0,0 L0,8 L8,4 z" fill="#f59e0b"/>
    </marker>
    <marker id="arrowRed" markerWidth="8" markerHeight="8" refX="7" refY="4" orient="auto">
      <path d="M0,0 L0,8 L8,4 z" fill="#ef4444"/>
    </marker>
    <marker id="arrowCyan" markerWidth="8" markerHeight="8" refX="7" refY="4" orient="auto">
      <path d="M0,0 L0,8 L8,4 z" fill="#06b6d4"/>
    </marker>
    <marker id="arrowTeal" markerWidth="8" markerHeight="8" refX="7" refY="4" orient="auto">
      <path d="M0,0 L0,8 L8,4 z" fill="#14b8a6"/>
    </marker>
    
    <!-- Shadow filter -->
    <filter id="shadow" x="-20%" y="-20%" width="140%" height="140%">
      <feDropShadow dx="0" dy="4" stdDeviation="8" flood-color="#000" flood-opacity="0.3"/>
    </filter>
    
    <!-- Background pattern -->
    <pattern id="grid" width="40" height="40" patternUnits="userSpaceOnUse">
      <path d="M 40 0 L 0 0 0 40" fill="none" stroke="rgba(148,163,184,0.04)" stroke-width="1"/>
    </pattern>
  </defs>
  
  <!-- Background -->
  <rect width="1200" height="900" fill="url(#bgGrad)"/>
  <rect width="1200" height="900" fill="url(#grid)"/>
  
  <!-- Decorative glows -->
  <ellipse cx="600" cy="150" rx="400" ry="100" fill="rgba(59,130,246,0.06)"/>
  <ellipse cx="600" cy="450" rx="350" ry="120" fill="rgba(139,92,246,0.05)"/>
  <ellipse cx="600" cy="720" rx="400" ry="120" fill="rgba(16,185,129,0.06)"/>
  
  <!-- Title -->
  <text x="600" y="40" fill="#f1f5f9" font-size="32" font-weight="700" text-anchor="middle" font-family="SF Pro Display, -apple-system, sans-serif">明瞳 - 校园欺凌智能干预系统</text>
  <text x="600" y="68" fill="#64748b" font-size="14" text-anchor="middle" font-family="monospace">端-边-云协同 · 多模态检测 · 智能干预 · 多方联动 · 持续进化</text>
  
  <!-- ==================== CLOUD LAYER ==================== -->
  
  <!-- Cloud Background -->
  <rect x="40" y="95" width="1120" height="210" rx="16" fill="rgba(59,130,246,0.08)" stroke="rgba(59,130,246,0.3)" stroke-width="2"/>
  <text x="60" y="120" fill="#3b82f6" font-size="16" font-weight="700" font-family="SF Pro Display, sans-serif">☁️ 云侧 · 华为云平台</text>
  <text x="230" y="120" fill="#64748b" font-size="11" font-family="monospace">数据汇聚 + 增量训练 + 多方通知</text>
  
  <!-- IoTDA -->
  <rect x="60" y="140" width="140" height="110" rx="10" fill="url(#iotdaGrad)" filter="url(#shadow)"/>
  <text x="130" y="165" fill="white" font-size="12" font-weight="600" text-anchor="middle">📡 IoTDA</text>
  <line x1="75" y1="175" x2="185" y2="175" stroke="rgba(255,255,255,0.25)" stroke-width="1"/>
  <text x="130" y="193" fill="rgba(255,255,255,0.9)" font-size="9" text-anchor="middle">设备接入管理</text>
  <text x="130" y="208" fill="rgba(255,255,255,0.7)" font-size="9" text-anchor="middle">MQTT协议</text>
  <text x="130" y="223" fill="rgba(255,255,255,0.6)" font-size="9" text-anchor="middle">规则引擎</text>
  <text x="130" y="238" fill="rgba(255,255,255,0.5)" font-size="9" text-anchor="middle">数据转发</text>
  
  <!-- DIS + OBS -->
  <rect x="220" y="140" width="140" height="110" rx="10" fill="url(#obsGrad)" filter="url(#shadow)"/>
  <text x="290" y="165" fill="white" font-size="12" font-weight="600" text-anchor="middle">🗄️ DIS + OBS</text>
  <line x1="235" y1="175" x2="345" y2="175" stroke="rgba(255,255,255,0.25)" stroke-width="1"/>
  <text x="290" y="193" fill="rgba(255,255,255,0.9)" font-size="9" text-anchor="middle">数据流接入</text>
  <text x="290" y="208" fill="rgba(255,255,255,0.7)" font-size="9" text-anchor="middle">历史数据归档</text>
  <text x="290" y="223" fill="rgba(255,255,255,0.6)" font-size="9" text-anchor="middle">事件日志存储</text>
  <text x="290" y="238" fill="rgba(255,255,255,0.5)" font-size="9" text-anchor="middle">训练数据集</text>
  
  <!-- ModelArts Training -->
  <rect x="380" y="140" width="180" height="110" rx="10" fill="url(#trainGrad)" filter="url(#shadow)"/>
  <text x="470" y="165" fill="white" font-size="12" font-weight="600" text-anchor="middle">🔄 增量训练</text>
  <line x1="395" y1="175" x2="545" y2="175" stroke="rgba(255,255,255,0.25)" stroke-width="1"/>
  <text x="470" y="193" fill="rgba(255,255,255,0.9)" font-size="9" text-anchor="middle">ModelArts平台</text>
  <text x="470" y="208" fill="rgba(255,255,255,0.7)" font-size="9" text-anchor="middle">报警数据回流</text>
  <text x="470" y="223" fill="rgba(255,255,255,0.6)" font-size="9" text-anchor="middle">定期模型优化</text>
  <text x="470" y="238" fill="rgba(255,255,255,0.5)" font-size="9" text-anchor="middle">OTA模型更新↓</text>
  
  <!-- FunctionGraph -->
  <rect x="580" y="140" width="150" height="110" rx="10" fill="url(#edgeGrad)" filter="url(#shadow)"/>
  <text x="655" y="165" fill="white" font-size="12" font-weight="600" text-anchor="middle">⚡ FunctionGraph</text>
  <line x1="595" y1="175" x2="715" y2="175" stroke="rgba(255,255,255,0.25)" stroke-width="1"/>
  <text x="655" y="193" fill="rgba(255,255,255,0.9)" font-size="9" text-anchor="middle">无服务器函数</text>
  <text x="655" y="208" fill="rgba(255,255,255,0.7)" font-size="9" text-anchor="middle">云端二次确认</text>
  <text x="655" y="223" fill="rgba(255,255,255,0.6)" font-size="9" text-anchor="middle">告警等级研判</text>
  <text x="655" y="238" fill="rgba(255,255,255,0.5)" font-size="9" text-anchor="middle">触发多方通知</text>
  
  <!-- SMN to Security -->
  <rect x="750" y="140" width="130" height="110" rx="10" fill="url(#securityGrad)" filter="url(#shadow)"/>
  <text x="815" y="165" fill="white" font-size="12" font-weight="600" text-anchor="middle">🏫 保卫处</text>
  <line x1="765" y1="175" x2="865" y2="175" stroke="rgba(255,255,255,0.25)" stroke-width="1"/>
  <text x="815" y="193" fill="rgba(255,255,255,0.9)" font-size="9" text-anchor="middle">SMN消息推送</text>
  <text x="815" y="208" fill="rgba(255,255,255,0.7)" font-size="9" text-anchor="middle">短信/邮件通知</text>
  <text x="815" y="223" fill="rgba(255,255,255,0.6)" font-size="9" text-anchor="middle">位置+事件详情</text>
  <text x="815" y="238" fill="rgba(255,255,255,0.5)" font-size="9" text-anchor="middle">第一时间响应</text>
  
  <!-- Police -->
  <rect x="900" y="140" width="130" height="110" rx="10" fill="url(#policeGrad)" filter="url(#shadow)"/>
  <text x="965" y="165" fill="white" font-size="12" font-weight="600" text-anchor="middle">🚔 警察局</text>
  <line x1="915" y1="175" x2="1015" y2="175" stroke="rgba(255,255,255,0.25)" stroke-width="1"/>
  <text x="965" y="193" fill="rgba(255,255,255,0.9)" font-size="9" text-anchor="middle">高危事件联动</text>
  <text x="965" y="208" fill="rgba(255,255,255,0.7)" font-size="9" text-anchor="middle">Webhook推送</text>
  <text x="965" y="223" fill="rgba(255,255,255,0.6)" font-size="9" text-anchor="middle">报警信息同步</text>
  <text x="965" y="238" fill="rgba(255,255,255,0.5)" font-size="9" text-anchor="middle">应急快速出警</text>
  
  <!-- Teacher/Parent notification label -->
  <rect x="1050" y="140" width="90" height="110" rx="10" fill="rgba(251,191,36,0.15)" stroke="#fbbf24" stroke-width="2"/>
  <text x="1095" y="165" fill="#fbbf24" font-size="12" font-weight="600" text-anchor="middle">👨‍👩‍👧 家长</text>
  <text x="1095" y="165" fill="#fbbf24" font-size="12" font-weight="600" text-anchor="middle">👨‍👩‍👧</text>
  <line x1="1060" y1="175" x2="1130" y2="175" stroke="rgba(251,191,36,0.3)" stroke-width="1"/>
  <text x="1095" y="193" fill="#94a3b8" font-size="9" text-anchor="middle">短信通知</text>
  <text x="1095" y="208" fill="#64748b" font-size="9" text-anchor="middle">APP推送</text>
  <text x="1095" y="223" fill="#64748b" font-size="9" text-anchor="middle">事件详情</text>
  <text x="1095" y="238" fill="#64748b" font-size="9" text-anchor="middle">关怀跟进</text>
  
  <!-- Cloud internal arrows -->
  <line x1="200" y1="195" x2="215" y2="195" stroke="#f59e0b" stroke-width="2" marker-end="url(#arrowCyan)"/>
  <line x1="360" y1="195" x2="375" y2="195" stroke="#06b6d4" stroke-width="2" marker-end="url(#arrowTeal)"/>
  <line x1="560" y1="195" x2="575" y2="195" stroke="#14b8a6" stroke-width="2" marker-end="url(#arrowPurple)"/>
  <line x1="730" y1="195" x2="745" y2="195" stroke="#8b5cf6" stroke-width="2" marker-end="url(#arrowPurple)"/>
  <line x1="880" y1="195" x2="895" y2="195" stroke="#7c3aed" stroke-width="2" marker-end="url(#arrowBlue)"/>
  <line x1="1030" y1="195" x2="1045" y2="195" stroke="#1e40af" stroke-width="2" marker-end="url(#arrowOrange)"/>
  
  <!-- ==================== EDGE LAYER ==================== -->
  
  <!-- Edge Background -->
  <rect x="40" y="335" width="1120" height="200" rx="16" fill="rgba(139,92,246,0.08)" stroke="rgba(139,92,246,0.3)" stroke-width="2"/>
  <text x="60" y="360" fill="#8b5cf6" font-size="16" font-weight="700" font-family="SF Pro Display, sans-serif">🖥️ 边侧 · 香橙派 AI Pro</text>
  <text x="270" y="360" fill="#64748b" font-size="11" font-family="monospace">本地AI推理 + 快速响应 + 智能决策</text>
  
  <!-- Orange Pi Board -->
  <rect x="60" y="380" width="190" height="130" rx="10" fill="url(#edgeGrad)" filter="url(#shadow)"/>
  <text x="155" y="405" fill="white" font-size="12" font-weight="600" text-anchor="middle">🍊 香橙派 AI Pro</text>
  <line x1="75" y1="415" x2="235" y2="415" stroke="rgba(255,255,255,0.25)" stroke-width="1"/>
  <text x="155" y="433" fill="rgba(255,255,255,0.9)" font-size="9" text-anchor="middle">昇腾310 NPU</text>
  <text x="155" y="448" fill="rgba(255,255,255,0.7)" font-size="9" text-anchor="middle">UART接收端侧数据</text>
  <text x="155" y="463" fill="rgba(255,255,255,0.6)" font-size="9" text-anchor="middle">本地特征提取</text>
  <text x="155" y="478" fill="rgba(255,255,255,0.5)" font-size="9" text-anchor="middle">MQTT云端上报</text>
  <text x="155" y="493" fill="rgba(255,255,255,0.4)" font-size="9" text-anchor="middle" font-family="monospace">edge_inference.py</text>
  
  <!-- Local AI Inference -->
  <rect x="280" y="380" width="200" height="130" rx="10" fill="url(#modelartsGrad)" filter="url(#shadow)"/>
  <text x="380" y="405" fill="white" font-size="12" font-weight="600" text-anchor="middle">🧠 多模态AI模型</text>
  <line x1="295" y1="415" x2="465" y2="415" stroke="rgba(255,255,255,0.25)" stroke-width="1"/>
  <text x="380" y="433" fill="rgba(255,255,255,0.9)" font-size="9" text-anchor="middle">音频: 4层CNN → 256维</text>
  <text x="380" y="448" fill="rgba(255,255,255,0.7)" font-size="9" text-anchor="middle">振动: BiLSTM → 128维</text>
  <text x="380" y="463" fill="rgba(255,255,255,0.6)" font-size="9" text-anchor="middle">跨模态注意力融合</text>
  <text x="380" y="478" fill="rgba(255,255,255,0.5)" font-size="9" text-anchor="middle">推理延迟 &lt;100ms</text>
  <text x="380" y="493" fill="rgba(255,255,255,0.4)" font-size="9" text-anchor="middle">输出: P(欺凌) ∈ [0,1]</text>
  
  <!-- Decision Logic -->
  <rect x="510" y="380" width="180" height="130" rx="10" fill="url(#iotdaGrad)" filter="url(#shadow)"/>
  <text x="600" y="405" fill="white" font-size="12" font-weight="600" text-anchor="middle">⚖️ 智能决策引擎</text>
  <line x1="525" y1="415" x2="675" y2="415" stroke="rgba(255,255,255,0.25)" stroke-width="1"/>
  <text x="600" y="433" fill="rgba(255,255,255,0.9)" font-size="9" text-anchor="middle">阈值判断 (P≥0.7)</text>
  <text x="600" y="448" fill="rgba(255,255,255,0.7)" font-size="9" text-anchor="middle">连续确认 (≥2次)</text>
  <text x="600" y="463" fill="rgba(255,255,255,0.6)" font-size="9" text-anchor="middle">告警级别分类</text>
  <text x="600" y="478" fill="rgba(255,255,255,0.5)" font-size="9" text-anchor="middle">NONE/LOW/MED/HIGH</text>
  <text x="600" y="493" fill="rgba(255,255,255,0.4)" font-size="9" text-anchor="middle">冷却机制防误报</text>
  
  <!-- Intervention Command -->
  <rect x="720" y="380" width="170" height="130" rx="10" fill="url(#alarmGrad)" filter="url(#shadow)"/>
  <text x="805" y="405" fill="white" font-size="12" font-weight="600" text-anchor="middle">🚨 干预指令</text>
  <line x1="735" y1="415" x2="875" y2="415" stroke="rgba(255,255,255,0.25)" stroke-width="1"/>
  <text x="805" y="433" fill="rgba(255,255,255,0.9)" font-size="9" text-anchor="middle">UART下发端侧</text>
  <text x="805" y="448" fill="rgba(255,255,255,0.7)" font-size="9" text-anchor="middle">蜂鸣器控制</text>
  <text x="805" y="463" fill="rgba(255,255,255,0.6)" font-size="9" text-anchor="middle">LED灯光警示</text>
  <text x="805" y="478" fill="rgba(255,255,255,0.5)" font-size="9" text-anchor="middle">现场即时干预</text>
  <text x="805" y="493" fill="rgba(255,255,255,0.4)" font-size="9" text-anchor="middle">震慑+警示作用</text>
  
  <!-- Cloud Sync -->
  <rect x="920" y="380" width="140" height="130" rx="10" fill="url(#cloudGrad)" filter="url(#shadow)"/>
  <text x="990" y="405" fill="white" font-size="12" font-weight="600" text-anchor="middle">☁️ 数据上报</text>
  <line x1="935" y1="415" x2="1045" y2="415" stroke="rgba(255,255,255,0.25)" stroke-width="1"/>
  <text x="990" y="433" fill="rgba(255,255,255,0.9)" font-size="9" text-anchor="middle">MQTT/HTTPS</text>
  <text x="990" y="448" fill="rgba(255,255,255,0.7)" font-size="9" text-anchor="middle">特征数据上传</text>
  <text x="990" y="463" fill="rgba(255,255,255,0.6)" font-size="9" text-anchor="middle">报警事件日志</text>
  <text x="990" y="478" fill="rgba(255,255,255,0.5)" font-size="9" text-anchor="middle">→ 增量训练数据</text>
  <text x="990" y="493" fill="rgba(255,255,255,0.4)" font-size="9" text-anchor="middle">→ IoTDA</text>
  
  <!-- Edge internal arrows -->
  <line x1="250" y1="445" x2="275" y2="445" stroke="#8b5cf6" stroke-width="2" marker-end="url(#arrowPurple)"/>
  <line x1="480" y1="445" x2="505" y2="445" stroke="#ec4899" stroke-width="2" marker-end="url(#arrowOrange)"/>
  <line x1="690" y1="445" x2="715" y2="445" stroke="#f59e0b" stroke-width="2" marker-end="url(#arrowRed)"/>
  <line x1="890" y1="445" x2="915" y2="445" stroke="#ef4444" stroke-width="2" marker-end="url(#arrowBlue)"/>
  
  <!-- ==================== DEVICE LAYER ==================== -->
  
  <!-- Device Background -->
  <rect x="40" y="565" width="1120" height="200" rx="16" fill="rgba(16,185,129,0.08)" stroke="rgba(16,185,129,0.3)" stroke-width="2"/>
  <text x="60" y="590" fill="#10b981" font-size="16" font-weight="700" font-family="SF Pro Display, sans-serif">📱 端侧 · K01 + D02</text>
  <text x="230" y="590" fill="#64748b" font-size="11" font-family="monospace">多模态采集 + 星闪通信 + 声光报警执行</text>
  
  <!-- K01 MCU -->
  <rect x="60" y="610" width="180" height="130" rx="10" fill="url(#deviceGrad)" filter="url(#shadow)"/>
  <text x="150" y="635" fill="white" font-size="12" font-weight="600" text-anchor="middle">🔌 K01 主控MCU</text>
  <line x1="75" y1="645" x2="225" y2="645" stroke="rgba(255,255,255,0.25)" stroke-width="1"/>
  <text x="150" y="663" fill="rgba(255,255,255,0.9)" font-size="9" text-anchor="middle">海思Hi3861 RISC-V</text>
  <text x="150" y="678" fill="rgba(255,255,255,0.7)" font-size="9" text-anchor="middle">LiteOS系统</text>
  <text x="150" y="693" fill="rgba(255,255,255,0.6)" font-size="9" text-anchor="middle">传感器驱动</text>
  <text x="150" y="708" fill="rgba(255,255,255,0.5)" font-size="9" text-anchor="middle">数据采集+封装</text>
  <text x="150" y="723" fill="rgba(255,255,255,0.4)" font-size="9" text-anchor="middle" font-family="monospace">k01_main.c</text>
  
  <!-- Sensors -->
  <rect x="270" y="610" width="200" height="130" rx="10" fill="url(#sensorGrad)" filter="url(#shadow)"/>
  <text x="370" y="635" fill="white" font-size="12" font-weight="600" text-anchor="middle">📡 多模态传感器</text>
  <line x1="285" y1="645" x2="455" y2="645" stroke="rgba(255,255,255,0.25)" stroke-width="1"/>
  <text x="370" y="663" fill="rgba(255,255,255,0.9)" font-size="9" text-anchor="middle">🎙️ 全向MEMS麦克风</text>
  <text x="370" y="678" fill="rgba(255,255,255,0.7)" font-size="9" text-anchor="middle">16kHz采样 · 声音特征</text>
  <text x="370" y="696" fill="rgba(255,255,255,0.9)" font-size="9" text-anchor="middle">📳 六轴IMU (MPU6050)</text>
  <text x="370" y="711" fill="rgba(255,255,255,0.7)" font-size="9" text-anchor="middle">100Hz采样 · 振动特征</text>
  <text x="370" y="726" fill="rgba(255,255,255,0.5)" font-size="9" text-anchor="middle">多模态融合采集</text>
  
  <!-- SLE Communication -->
  <rect x="500" y="610" width="170" height="130" rx="10" fill="url(#cloudGrad)" filter="url(#shadow)"/>
  <text x="585" y="635" fill="white" font-size="12" font-weight="600" text-anchor="middle">⭐ 星闪 SLE</text>
  <line x1="515" y1="645" x2="655" y2="645" stroke="rgba(255,255,255,0.25)" stroke-width="1"/>
  <text x="585" y="663" fill="rgba(255,255,255,0.9)" font-size="9" text-anchor="middle">D02星闪模组</text>
  <text x="585" y="678" fill="rgba(255,255,255,0.7)" font-size="9" text-anchor="middle">低功耗短距通信</text>
  <text x="585" y="693" fill="rgba(255,255,255,0.6)" font-size="9" text-anchor="middle">延迟 &lt;1ms</text>
  <text x="585" y="708" fill="rgba(255,255,255,0.5)" font-size="9" text-anchor="middle">数据上行 ↑</text>
  <text x="585" y="723" fill="rgba(255,255,255,0.4)" font-size="9" text-anchor="middle">指令下行 ↓</text>
  
  <!-- Actuators -->
  <rect x="700" y="610" width="180" height="130" rx="10" fill="url(#alarmGrad)" filter="url(#shadow)"/>
  <text x="790" y="635" fill="white" font-size="12" font-weight="600" text-anchor="middle">🚨 声光干预执行</text>
  <line x1="715" y1="645" x2="865" y2="645" stroke="rgba(255,255,255,0.25)" stroke-width="1"/>
  <text x="790" y="663" fill="rgba(255,255,255,0.9)" font-size="9" text-anchor="middle">🔔 有源蜂鸣器</text>
  <text x="790" y="678" fill="rgba(255,255,255,0.7)" font-size="9" text-anchor="middle">高分贝警示音</text>
  <text x="790" y="696" fill="rgba(255,255,255,0.9)" font-size="9" text-anchor="middle">💡 WS2812 LED灯带</text>
  <text x="790" y="711" fill="rgba(255,255,255,0.7)" font-size="9" text-anchor="middle">红色闪烁警示</text>
  <text x="790" y="726" fill="rgba(255,255,255,0.5)" font-size="9" text-anchor="middle">现场震慑干预</text>
  
  <!-- Privacy Note -->
  <rect x="910" y="610" width="150" height="130" rx="10" fill="rgba(34,197,94,0.15)" stroke="#22c55e" stroke-width="2"/>
  <text x="985" y="635" fill="#22c55e" font-size="12" font-weight="600" text-anchor="middle">🔒 隐私保护</text>
  <line x1="925" y1="645" x2="1045" y2="645" stroke="rgba(34,197,94,0.3)" stroke-width="1"/>
  <text x="985" y="665" fill="#94a3b8" font-size="9" text-anchor="middle">不采集原始音频</text>
  <text x="985" y="682" fill="#64748b" font-size="9" text-anchor="middle">不采集视频图像</text>
  <text x="985" y="699" fill="#64748b" font-size="9" text-anchor="middle">仅传输特征数据</text>
  <text x="985" y="716" fill="#64748b" font-size="9" text-anchor="middle">本地特征提取</text>
  <text x="985" y="733" fill="#64748b" font-size="9" text-anchor="middle">保护学生隐私</text>
  
  <!-- Device internal arrows -->
  <line x1="240" y1="675" x2="265" y2="675" stroke="#10b981" stroke-width="2" marker-end="url(#arrowGreen)"/>
  <line x1="470" y1="675" x2="495" y2="675" stroke="#22c55e" stroke-width="2" marker-end="url(#arrowBlue)"/>
  <line x1="670" y1="675" x2="695" y2="675" stroke="#3b82f6" stroke-width="2" marker-end="url(#arrowRed)"/>
  
  <!-- ==================== VERTICAL CONNECTIONS ==================== -->
  
  <!-- Edge to Cloud (data upload) -->
  <path d="M 130 305 L 130 335" stroke="#f59e0b" stroke-width="3" fill="none" marker-end="url(#arrowOrange)"/>
  <text x="90" y="323" fill="#f59e0b" font-size="9" font-family="monospace">MQTT↑</text>
  
  <!-- Cloud to Edge (OTA update) - dashed line for model update loop -->
  <path d="M 470 250 L 470 280 Q 470 300 450 300 L 200 300 Q 180 300 180 320 L 180 335" stroke="#14b8a6" stroke-width="2.5" fill="none" stroke-dasharray="8,4" marker-end="url(#arrowTeal)"/>
  <text x="320" y="290" fill="#14b8a6" font-size="9" font-family="monospace">OTA模型更新</text>
  
  <!-- Edge to Device (command down) -->
  <path d="M 805 510 L 805 545 L 805 565" stroke="#ef4444" stroke-width="3" fill="none" marker-end="url(#arrowRed)"/>
  <text x="825" y="545" fill="#ef4444" font-size="9" font-family="monospace">干预指令↓</text>
  
  <!-- Device to Edge (data up) -->
  <path d="M 585 565 L 585 545 L 155 545 L 155 510" stroke="#10b981" stroke-width="3" fill="none" marker-end="url(#arrowPurple)"/>
  <text x="350" y="537" fill="#10b981" font-size="9" font-family="monospace">星闪SLE 采集数据↑</text>
  
  <!-- Data feedback loop arrow (from Edge to Cloud for training) -->
  <path d="M 990 380 L 990 320 L 990 305" stroke="#06b6d4" stroke-width="2.5" fill="none" marker-end="url(#arrowCyan)"/>
  <text x="1010" y="345" fill="#06b6d4" font-size="9" font-family="monospace">报警数据↑</text>
  <text x="1010" y="358" fill="#06b6d4" font-size="8" font-family="monospace">增量训练</text>
  
  <!-- ==================== LEGEND ==================== -->
  
  <rect x="40" y="785" width="1120" height="95" rx="12" fill="rgba(30,41,59,0.6)" stroke="rgba(71,85,105,0.3)" stroke-width="1"/>
  
  <text x="60" y="810" fill="#f1f5f9" font-size="13" font-weight="600" font-family="SF Pro Display, sans-serif">系统特点</text>
  
  <!-- Features -->
  <circle cx="180" cy="807" r="6" fill="#ec4899"/>
  <text x="195" y="812" fill="#94a3b8" font-size="10">多模态融合检测</text>
  
  <circle cx="340" cy="807" r="6" fill="#ef4444"/>
  <text x="355" y="812" fill="#94a3b8" font-size="10">声光即时干预</text>
  
  <circle cx="490" cy="807" r="6" fill="#8b5cf6"/>
  <text x="505" y="812" fill="#94a3b8" font-size="10">保卫处+警局联动</text>
  
  <circle cx="670" cy="807" r="6" fill="#14b8a6"/>
  <text x="685" y="812" fill="#94a3b8" font-size="10">数据回流增量训练</text>
  
  <circle cx="850" cy="807" r="6" fill="#22c55e"/>
  <text x="865" y="812" fill="#94a3b8" font-size="10">隐私保护设计</text>
  
  <!-- Metrics -->
  <text x="60" y="845" fill="#64748b" font-size="11" font-family="SF Pro Display, sans-serif">关键指标:</text>
  <text x="140" y="845" fill="#94a3b8" font-size="10">端到端延迟 &lt;3s</text>
  <text x="280" y="845" fill="#94a3b8" font-size="10">|  推理延迟 &lt;100ms</text>
  <text x="440" y="845" fill="#94a3b8" font-size="10">|  星闪延迟 &lt;1ms</text>
  <text x="590" y="845" fill="#94a3b8" font-size="10">|  检测准确率 &gt;95%</text>
  <text x="760" y="845" fill="#94a3b8" font-size="10">|  误报率 &lt;5%</text>
  
  <!-- Closed loop label -->
  <text x="60" y="868" fill="#14b8a6" font-size="11" font-weight="600" font-family="SF Pro Display, sans-serif">🔄 闭环自进化:</text>
  <text x="170" y="868" fill="#64748b" font-size="10">检测 → 干预 → 上报 → 增量训练 → 模型优化 → OTA更新 → 检测能力提升</text>
  
  <text x="1100" y="868" fill="#475569" font-size="10" text-anchor="end" font-family="SF Pro Display, sans-serif">三英战ICT · 华中师范大学</text>
</svg>
